<svg version="1.1" xmlns="http://www.w3.org/2000/svg" viewBox="0 0 2340 1070" width="4680" height="2140">
  <!-- svg-source:excalidraw -->
  
  <defs>
    <style>
      @font-face {
        font-family: "Virgil";
        src: url("https://excalidraw.com/Virgil.woff2");
      }
      @font-face {
        font-family: "Cascadia";
        src: url("https://excalidraw.com/Cascadia.woff2");
      }
    </style>
  </defs>
  <rect x="0" y="0" width="2340" height="1070" fill="#ffffff"></rect><g stroke-linecap="round" transform="translate(1390 450) rotate(0 200 270)"><path d="M0 0 L400 0 L400 540 L0 540" stroke="none" stroke-width="0" fill="#f0ebfc"></path><path d="M0 0 C95.87 0, 191.74 0, 400 0 M0 0 C128.35 0, 256.7 0, 400 0 M400 0 C400 166.69, 400 333.38, 400 540 M400 0 C400 113.8, 400 227.6, 400 540 M400 540 C281.37 540, 162.74 540, 0 540 M400 540 C243.48 540, 86.97 540, 0 540 M0 540 C0 327.46, 0 114.93, 0 0 M0 540 C0 376.09, 0 212.18, 0 0" stroke="transparent" stroke-width="4" fill="none"></path></g><g stroke-linecap="round" transform="translate(1450 550) rotate(0 49.99999999999886 49.99999999999909)"><path d="M0 0 L100 0 L100 100 L0 100" stroke="none" stroke-width="0" fill="#fff"></path><path d="M0 0 C32.62 0, 65.23 0, 100 0 M0 0 C35.68 0, 71.37 0, 100 0 M100 0 C100 31.31, 100 62.63, 100 100 M100 0 C100 30.68, 100 61.36, 100 100 M100 100 C63.69 100, 27.38 100, 0 100 M100 100 C63.77 100, 27.53 100, 0 100 M0 100 C0 72.05, 0 44.1, 0 0 M0 100 C0 61.13, 0 22.26, 0 0" stroke="transparent" stroke-width="4" fill="none"></path></g><g stroke-linecap="round" transform="translate(1450 550) rotate(0 49.99999999999886 5)"><path d="M0 0 L100 0 L100 10 L0 10" stroke="none" stroke-width="0" fill="#efc71baa"></path><path d="M0 0 C32.94 0, 65.87 0, 100 0 M0 0 C36.33 0, 72.65 0, 100 0 M100 0 C100 3.07, 100 6.13, 100 10 M100 0 C100 2.49, 100 4.97, 100 10 M100 10 C77.66 10, 55.32 10, 0 10 M100 10 C70.23 10, 40.46 10, 0 10 M0 10 C0 6.17, 0 2.35, 0 0 M0 10 C0 7.61, 0 5.22, 0 0" stroke="transparent" stroke-width="4" fill="none"></path></g><g stroke-linecap="round" transform="translate(1450 570) rotate(0 49.99999999999886 5)"><path d="M0 0 L100 0 L100 10 L0 10" stroke="none" stroke-width="0" fill="#efc71b77"></path><path d="M0 0 C25.84 0, 51.67 0, 100 0 M0 0 C36.75 0, 73.49 0, 100 0 M100 0 C100 3.08, 100 6.15, 100 10 M100 0 C100 2.86, 100 5.72, 100 10 M100 10 C61.96 10, 23.91 10, 0 10 M100 10 C64.46 10, 28.92 10, 0 10 M0 10 C0 6.32, 0 2.65, 0 0 M0 10 C0 6.46, 0 2.92, 0 0" stroke="transparent" stroke-width="4" fill="none"></path></g><g stroke-linecap="round" transform="translate(1450 590) rotate(0 49.99999999999886 5)"><path d="M0 0 L100 0 L100 10 L0 10" stroke="none" stroke-width="0" fill="#efc71b77"></path><path d="M0 0 C39.84 0, 79.68 0, 100 0 M0 0 C36.25 0, 72.49 0, 100 0 M100 0 C100 2.96, 100 5.92, 100 10 M100 0 C100 3.12, 100 6.25, 100 10 M100 10 C70.87 10, 41.75 10, 0 10 M100 10 C63.83 10, 27.65 10, 0 10 M0 10 C0 6, 0 2.01, 0 0 M0 10 C0 6.74, 0 3.47, 0 0" stroke="transparent" stroke-width="4" fill="none"></path></g><g stroke-linecap="round" transform="translate(1450 610) rotate(0 49.99999999999886 5)"><path d="M0 0 L100 0 L100 10 L0 10" stroke="none" stroke-width="0" fill="#efc71b77"></path><path d="M0 0 C39.78 0, 79.56 0, 100 0 M0 0 C23.79 0, 47.57 0, 100 0 M100 0 C100 2.41, 100 4.82, 100 10 M100 0 C100 2.12, 100 4.23, 100 10 M100 10 C66.92 10, 33.85 10, 0 10 M100 10 C68 10, 36.01 10, 0 10 M0 10 C0 7.54, 0 5.09, 0 0 M0 10 C0 7.47, 0 4.94, 0 0" stroke="transparent" stroke-width="4" fill="none"></path></g><g stroke-linecap="round" transform="translate(1450 630) rotate(0 49.99999999999886 5)"><path d="M0 0 L100 0 L100 10 L0 10" stroke="none" stroke-width="0" fill="#efc71b77"></path><path d="M0 0 C33.31 0, 66.61 0, 100 0 M0 0 C27.59 0, 55.17 0, 100 0 M100 0 C100 3.76, 100 7.51, 100 10 M100 0 C100 3.47, 100 6.94, 100 10 M100 10 C78.85 10, 57.7 10, 0 10 M100 10 C68.43 10, 36.85 10, 0 10 M0 10 C0 6.31, 0 2.63, 0 0 M0 10 C0 7.15, 0 4.3, 0 0" stroke="transparent" stroke-width="4" fill="none"></path></g><g stroke-linecap="round" transform="translate(1405.000000000001 595) rotate(270 49.99999999999886 5)"><path d="M0 0 L100 0 L100 10 L0 10" stroke="none" stroke-width="0" fill="#2fbad1aa"></path><path d="M0 0 C28.93 0, 57.86 0, 100 0 M0 0 C27.94 0, 55.88 0, 100 0 M100 0 C100 2.46, 100 4.91, 100 10 M100 0 C100 2.08, 100 4.17, 100 10 M100 10 C66.6 10, 33.2 10, 0 10 M100 10 C60.76 10, 21.52 10, 0 10 M0 10 C0 7.8, 0 5.59, 0 0 M0 10 C0 7.66, 0 5.31, 0 0" stroke="transparent" stroke-width="4" fill="none"></path></g><g stroke-linecap="round" transform="translate(1425 594.9999999999982) rotate(270 49.99999999999886 5)"><path d="M0 0 L100 0 L100 10 L0 10" stroke="none" stroke-width="0" fill="#2fbad177"></path><path d="M0 0 C25.72 0, 51.45 0, 100 0 M0 0 C22.34 0, 44.68 0, 100 0 M100 0 C100 2.82, 100 5.64, 100 10 M100 0 C100 2.6, 100 5.2, 100 10 M100 10 C66.7 10, 33.41 10, 0 10 M100 10 C74.53 10, 49.07 10, 0 10 M0 10 C0 7.49, 0 4.98, 0 0 M0 10 C0 6.02, 0 2.04, 0 0" stroke="transparent" stroke-width="4" fill="none"></path></g><g stroke-linecap="round" transform="translate(1445.0000000000036 595.0000000000018) rotate(270 49.99999999999886 5)"><path d="M0 0 L100 0 L100 10 L0 10" stroke="none" stroke-width="0" fill="#2fbad177"></path><path d="M0 0 C24.04 0, 48.07 0, 100 0 M0 0 C24.09 0, 48.18 0, 100 0 M100 0 C100 2.16, 100 4.33, 100 10 M100 0 C100 2.37, 100 4.74, 100 10 M100 10 C72.75 10, 45.5 10, 0 10 M100 10 C65.35 10, 30.7 10, 0 10 M0 10 C0 6.38, 0 2.75, 0 0 M0 10 C0 7.15, 0 4.31, 0 0" stroke="transparent" stroke-width="4" fill="none"></path></g><g stroke-linecap="round" transform="translate(1465.0000000000045 595.0000000000018) rotate(270 49.99999999999886 5)"><path d="M0 0 L100 0 L100 10 L0 10" stroke="none" stroke-width="0" fill="#2fbad177"></path><path d="M0 0 C33.22 0, 66.44 0, 100 0 M0 0 C28.75 0, 57.51 0, 100 0 M100 0 C100 3.88, 100 7.77, 100 10 M100 0 C100 3.21, 100 6.43, 100 10 M100 10 C75.8 10, 51.61 10, 0 10 M100 10 C76.4 10, 52.81 10, 0 10 M0 10 C0 7.54, 0 5.09, 0 0 M0 10 C0 6.9, 0 3.8, 0 0" stroke="transparent" stroke-width="4" fill="none"></path></g><g stroke-linecap="round" transform="translate(1485.0000000000018 595) rotate(270 49.99999999999886 5)"><path d="M0 0 L100 0 L100 10 L0 10" stroke="none" stroke-width="0" fill="#2fbad177"></path><path d="M0 0 C32.09 0, 64.18 0, 100 0 M0 0 C30.87 0, 61.74 0, 100 0 M100 0 C100 2.11, 100 4.21, 100 10 M100 0 C100 2.97, 100 5.93, 100 10 M100 10 C60.87 10, 21.74 10, 0 10 M100 10 C60.64 10, 21.28 10, 0 10 M0 10 C0 6.96, 0 3.93, 0 0 M0 10 C0 7.73, 0 5.45, 0 0" stroke="transparent" stroke-width="4" fill="none"></path></g><g stroke-linecap="round" transform="translate(1590.000000000001 510) rotate(0 71.64899553571377 71.64899553571377)"><path d="M0 0 L143.3 0 L143.3 143.3 L0 143.3" stroke="none" stroke-width="0" fill="#fff"></path><path d="M0 0 C51.14 0, 102.27 0, 143.3 0 M0 0 C44.87 0, 89.75 0, 143.3 0 M143.3 0 C143.3 43.96, 143.3 87.92, 143.3 143.3 M143.3 0 C143.3 52.03, 143.3 104.06, 143.3 143.3 M143.3 143.3 C91.38 143.3, 39.46 143.3, 0 143.3 M143.3 143.3 C103.25 143.3, 63.19 143.3, 0 143.3 M0 143.3 C0 87.6, 0 31.9, 0 0 M0 143.3 C0 110.57, 0 77.84, 0 0" stroke="transparent" stroke-width="4" fill="none"></path></g><g stroke-linecap="round" transform="translate(1590.000000000001 510) rotate(0 71.64899553571377 7.1648995535715585)"><path d="M0 0 L143.3 0 L143.3 14.33 L0 14.33" stroke="none" stroke-width="0" fill="#efc71baa"></path><path d="M0 0 C52.06 0, 104.11 0, 143.3 0 M0 0 C43.93 0, 87.87 0, 143.3 0 M143.3 0 C143.3 3.56, 143.3 7.13, 143.3 14.33 M143.3 0 C143.3 3.2, 143.3 6.4, 143.3 14.33 M143.3 14.33 C100.64 14.33, 57.97 14.33, 0 14.33 M143.3 14.33 C88.48 14.33, 33.67 14.33, 0 14.33 M0 14.33 C0 10.9, 0 7.48, 0 0 M0 14.33 C0 9.68, 0 5.04, 0 0" stroke="transparent" stroke-width="4" fill="none"></path></g><g stroke-linecap="round" transform="translate(1590.000000000001 538.6595982142862) rotate(0 71.64899553571377 7.1648995535715585)"><path d="M0 0 L143.3 0 L143.3 14.33 L0 14.33" stroke="none" stroke-width="0" fill="#efc71b77"></path><path d="M0 0 C52.66 0, 105.31 0, 143.3 0 M0 0 C44.09 0, 88.17 0, 143.3 0 M143.3 0 C143.3 4.09, 143.3 8.19, 143.3 14.33 M143.3 0 C143.3 5.45, 143.3 10.9, 143.3 14.33 M143.3 14.33 C92.37 14.33, 41.45 14.33, 0 14.33 M143.3 14.33 C90.6 14.33, 37.9 14.33, 0 14.33 M0 14.33 C0 9.26, 0 4.18, 0 0 M0 14.33 C0 9.7, 0 5.07, 0 0" stroke="transparent" stroke-width="4" fill="none"></path></g><g stroke-linecap="round" transform="translate(1590.000000000001 567.3191964285725) rotate(0 71.64899553571377 7.1648995535715585)"><path d="M0 0 L143.3 0 L143.3 14.33 L0 14.33" stroke="none" stroke-width="0" fill="#efc71b77"></path><path d="M0 0 C51.94 0, 103.88 0, 143.3 0 M0 0 C42.41 0, 84.81 0, 143.3 0 M143.3 0 C143.3 4.48, 143.3 8.95, 143.3 14.33 M143.3 0 C143.3 4.17, 143.3 8.35, 143.3 14.33 M143.3 14.33 C91.46 14.33, 39.63 14.33, 0 14.33 M143.3 14.33 C86.03 14.33, 28.77 14.33, 0 14.33 M0 14.33 C0 9.65, 0 4.98, 0 0 M0 14.33 C0 10.41, 0 6.48, 0 0" stroke="transparent" stroke-width="4" fill="none"></path></g><g stroke-linecap="round" transform="translate(1590.000000000001 595.9787946428551) rotate(0 71.64899553571377 7.1648995535715585)"><path d="M0 0 L143.3 0 L143.3 14.33 L0 14.33" stroke="none" stroke-width="0" fill="#efc71b77"></path><path d="M0 0 C34.09 0, 68.17 0, 143.3 0 M0 0 C34.54 0, 69.07 0, 143.3 0 M143.3 0 C143.3 3.03, 143.3 6.07, 143.3 14.33 M143.3 0 C143.3 4.74, 143.3 9.48, 143.3 14.33 M143.3 14.33 C97.45 14.33, 51.6 14.33, 0 14.33 M143.3 14.33 C108.1 14.33, 72.91 14.33, 0 14.33 M0 14.33 C0 10.7, 0 7.08, 0 0 M0 14.33 C0 9.65, 0 4.97, 0 0" stroke="transparent" stroke-width="4" fill="none"></path></g><g stroke-linecap="round" transform="translate(1590.000000000001 624.6383928571413) rotate(0 71.64899553571377 7.1648995535715585)"><path d="M0 0 L143.3 0 L143.3 14.33 L0 14.33" stroke="none" stroke-width="0" fill="#efc71b77"></path><path d="M0 0 C39.53 0, 79.06 0, 143.3 0 M0 0 C53.81 0, 107.63 0, 143.3 0 M143.3 0 C143.3 4.97, 143.3 9.95, 143.3 14.33 M143.3 0 C143.3 3.03, 143.3 6.06, 143.3 14.33 M143.3 14.33 C98.05 14.33, 52.81 14.33, 0 14.33 M143.3 14.33 C90.46 14.33, 37.63 14.33, 0 14.33 M0 14.33 C0 10.24, 0 6.16, 0 0 M0 14.33 C0 11.29, 0 8.24, 0 0" stroke="transparent" stroke-width="4" fill="none"></path></g><g stroke-linecap="round" transform="translate(1525.5159040178578 574.4840959821431) rotate(270 71.64899553571377 7.1648995535715585)"><path d="M0 0 L143.3 0 L143.3 14.33 L0 14.33" stroke="none" stroke-width="0" fill="#2fbad1aa"></path><path d="M0 0 C40.04 0, 80.08 0, 143.3 0 M0 0 C35.19 0, 70.39 0, 143.3 0 M143.3 0 C143.3 2.98, 143.3 5.97, 143.3 14.33 M143.3 0 C143.3 4.79, 143.3 9.57, 143.3 14.33 M143.3 14.33 C87.07 14.33, 30.84 14.33, 0 14.33 M143.3 14.33 C111.7 14.33, 80.11 14.33, 0 14.33 M0 14.33 C0 10.97, 0 7.61, 0 0 M0 14.33 C0 9.55, 0 4.77, 0 0" stroke="transparent" stroke-width="4" fill="none"></path></g><g stroke-linecap="round" transform="translate(1554.175502232144 574.4840959821413) rotate(270 71.64899553571377 7.1648995535715585)"><path d="M0 0 L143.3 0 L143.3 14.33 L0 14.33" stroke="none" stroke-width="0" fill="#2fbad177"></path><path d="M0 0 C32.02 0, 64.03 0, 143.3 0 M0 0 C40.37 0, 80.75 0, 143.3 0 M143.3 0 C143.3 3.73, 143.3 7.45, 143.3 14.33 M143.3 0 C143.3 4.77, 143.3 9.54, 143.3 14.33 M143.3 14.33 C106.8 14.33, 70.31 14.33, 0 14.33 M143.3 14.33 C107.31 14.33, 71.33 14.33, 0 14.33 M0 14.33 C0 8.62, 0 2.92, 0 0 M0 14.33 C0 9.83, 0 5.33, 0 0" stroke="transparent" stroke-width="4" fill="none"></path></g><g stroke-linecap="round" transform="translate(1582.8351004464357 574.4840959821449) rotate(270 71.64899553571377 7.1648995535715585)"><path d="M0 0 L143.3 0 L143.3 14.33 L0 14.33" stroke="none" stroke-width="0" fill="#2fbad177"></path><path d="M0 0 C34.52 0, 69.04 0, 143.3 0 M0 0 C31.01 0, 62.01 0, 143.3 0 M143.3 0 C143.3 3.4, 143.3 6.79, 143.3 14.33 M143.3 0 C143.3 3.91, 143.3 7.81, 143.3 14.33 M143.3 14.33 C93.65 14.33, 44 14.33, 0 14.33 M143.3 14.33 C91.38 14.33, 39.46 14.33, 0 14.33 M0 14.33 C0 10.25, 0 6.17, 0 0 M0 14.33 C0 11.44, 0 8.55, 0 0" stroke="transparent" stroke-width="4" fill="none"></path></g><g stroke-linecap="round" transform="translate(1611.4946986607201 574.4840959821449) rotate(270 71.64899553571377 7.1648995535715585)"><path d="M0 0 L143.3 0 L143.3 14.33 L0 14.33" stroke="none" stroke-width="0" fill="#2fbad177"></path><path d="M0 0 C41.2 0, 82.41 0, 143.3 0 M0 0 C55.66 0, 111.31 0, 143.3 0 M143.3 0 C143.3 4.6, 143.3 9.21, 143.3 14.33 M143.3 0 C143.3 3.47, 143.3 6.93, 143.3 14.33 M143.3 14.33 C109.49 14.33, 75.67 14.33, 0 14.33 M143.3 14.33 C108.09 14.33, 72.89 14.33, 0 14.33 M0 14.33 C0 9.89, 0 5.44, 0 0 M0 14.33 C0 8.74, 0 3.16, 0 0" stroke="transparent" stroke-width="4" fill="none"></path></g><g stroke-linecap="round" transform="translate(1640.1542968750027 574.4840959821449) rotate(270 71.64899553571377 7.1648995535715585)"><path d="M0 0 L143.3 0 L143.3 14.33 L0 14.33" stroke="none" stroke-width="0" fill="#2fbad177"></path><path d="M0 0 C44.23 0, 88.47 0, 143.3 0 M0 0 C30.2 0, 60.4 0, 143.3 0 M143.3 0 C143.3 4.25, 143.3 8.5, 143.3 14.33 M143.3 0 C143.3 5.61, 143.3 11.21, 143.3 14.33 M143.3 14.33 C86.9 14.33, 30.5 14.33, 0 14.33 M143.3 14.33 C99.8 14.33, 56.3 14.33, 0 14.33 M0 14.33 C0 11.07, 0 7.81, 0 0 M0 14.33 C0 9.3, 0 4.27, 0 0" stroke="transparent" stroke-width="4" fill="none"></path></g><g stroke-linecap="round" transform="translate(1590.000000000001 750) rotate(0 71.64899553571377 71.64899553571377)"><path d="M0 0 L143.3 0 L143.3 143.3 L0 143.3" stroke="none" stroke-width="0" fill="#fff"></path><path d="M0 0 C44.87 0, 89.75 0, 143.3 0 M0 0 C43.96 0, 87.92 0, 143.3 0 M143.3 0 C143.3 52.03, 143.3 104.06, 143.3 143.3 M143.3 0 C143.3 51.92, 143.3 103.84, 143.3 143.3 M143.3 143.3 C103.25 143.3, 63.19 143.3, 0 143.3 M143.3 143.3 C87.6 143.3, 31.9 143.3, 0 143.3 M0 143.3 C0 110.57, 0 77.84, 0 0 M0 143.3 C0 101.93, 0 60.57, 0 0" stroke="transparent" stroke-width="4" fill="none"></path></g><g stroke-linecap="round" transform="translate(1590.000000000001 750) rotate(0 71.64899553571377 7.1648995535715585)"><path d="M0 0 L143.3 0 L143.3 14.33 L0 14.33" stroke="none" stroke-width="0" fill="#efc71baa"></path><path d="M0 0 C43.93 0, 87.87 0, 143.3 0 M0 0 C35.63 0, 71.26 0, 143.3 0 M143.3 0 C143.3 3.2, 143.3 6.4, 143.3 14.33 M143.3 0 C143.3 4.27, 143.3 8.53, 143.3 14.33 M143.3 14.33 C88.48 14.33, 33.67 14.33, 0 14.33 M143.3 14.33 C109.04 14.33, 74.79 14.33, 0 14.33 M0 14.33 C0 9.68, 0 5.04, 0 0 M0 14.33 C0 9.12, 0 3.91, 0 0" stroke="transparent" stroke-width="4" fill="none"></path></g><g stroke-linecap="round" transform="translate(1590.000000000001 778.6595982142862) rotate(0 71.64899553571377 7.1648995535715585)"><path d="M0 0 L143.3 0 L143.3 14.33 L0 14.33" stroke="none" stroke-width="0" fill="#efc71b77"></path><path d="M0 0 C44.09 0, 88.17 0, 143.3 0 M0 0 C40.95 0, 81.9 0, 143.3 0 M143.3 0 C143.3 5.45, 143.3 10.9, 143.3 14.33 M143.3 0 C143.3 5.09, 143.3 10.19, 143.3 14.33 M143.3 14.33 C90.6 14.33, 37.9 14.33, 0 14.33 M143.3 14.33 C92.57 14.33, 41.83 14.33, 0 14.33 M0 14.33 C0 9.7, 0 5.07, 0 0 M0 14.33 C0 10.07, 0 5.82, 0 0" stroke="transparent" stroke-width="4" fill="none"></path></g><g stroke-linecap="round" transform="translate(1590.000000000001 807.3191964285725) rotate(0 71.64899553571377 7.1648995535715585)"><path d="M0 0 L143.3 0 L143.3 14.33 L0 14.33" stroke="none" stroke-width="0" fill="#efc71b77"></path><path d="M0 0 C42.41 0, 84.81 0, 143.3 0 M0 0 C44.77 0, 89.55 0, 143.3 0 M143.3 0 C143.3 4.17, 143.3 8.35, 143.3 14.33 M143.3 0 C143.3 5.18, 143.3 10.37, 143.3 14.33 M143.3 14.33 C86.03 14.33, 28.77 14.33, 0 14.33 M143.3 14.33 C96.54 14.33, 49.78 14.33, 0 14.33 M0 14.33 C0 10.41, 0 6.48, 0 0 M0 14.33 C0 8.82, 0 3.31, 0 0" stroke="transparent" stroke-width="4" fill="none"></path></g><g stroke-linecap="round" transform="translate(1590.000000000001 835.9787946428551) rotate(0 71.64899553571377 7.1648995535715585)"><path d="M0 0 L143.3 0 L143.3 14.33 L0 14.33" stroke="none" stroke-width="0" fill="#efc71b77"></path><path d="M0 0 C34.54 0, 69.07 0, 143.3 0 M0 0 C30.33 0, 60.66 0, 143.3 0 M143.3 0 C143.3 4.74, 143.3 9.48, 143.3 14.33 M143.3 0 C143.3 4.58, 143.3 9.17, 143.3 14.33 M143.3 14.33 C108.1 14.33, 72.91 14.33, 0 14.33 M143.3 14.33 C107.04 14.33, 70.79 14.33, 0 14.33 M0 14.33 C0 9.65, 0 4.97, 0 0 M0 14.33 C0 9.48, 0 4.63, 0 0" stroke="transparent" stroke-width="4" fill="none"></path></g><g stroke-linecap="round" transform="translate(1590.000000000001 864.6383928571413) rotate(0 71.64899553571377 7.1648995535715585)"><path d="M0 0 L143.3 0 L143.3 14.33 L0 14.33" stroke="none" stroke-width="0" fill="#efc71b77"></path><path d="M0 0 C53.81 0, 107.63 0, 143.3 0 M0 0 C49.74 0, 99.49 0, 143.3 0 M143.3 0 C143.3 3.03, 143.3 6.06, 143.3 14.33 M143.3 0 C143.3 4.52, 143.3 9.05, 143.3 14.33 M143.3 14.33 C90.46 14.33, 37.63 14.33, 0 14.33 M143.3 14.33 C102.43 14.33, 61.57 14.33, 0 14.33 M0 14.33 C0 11.29, 0 8.24, 0 0 M0 14.33 C0 9.72, 0 5.12, 0 0" stroke="transparent" stroke-width="4" fill="none"></path></g><g stroke-linecap="round" transform="translate(1525.5159040178578 814.4840959821431) rotate(270 71.64899553571377 7.1648995535715585)"><path d="M0 0 L143.3 0 L143.3 14.33 L0 14.33" stroke="none" stroke-width="0" fill="#2fbad1aa"></path><path d="M0 0 C35.19 0, 70.39 0, 143.3 0 M0 0 C29.85 0, 59.69 0, 143.3 0 M143.3 0 C143.3 4.79, 143.3 9.57, 143.3 14.33 M143.3 0 C143.3 5.62, 143.3 11.25, 143.3 14.33 M143.3 14.33 C111.7 14.33, 80.11 14.33, 0 14.33 M143.3 14.33 C109.71 14.33, 76.11 14.33, 0 14.33 M0 14.33 C0 9.55, 0 4.77, 0 0 M0 14.33 C0 8.96, 0 3.59, 0 0" stroke="transparent" stroke-width="4" fill="none"></path></g><g stroke-linecap="round" transform="translate(1554.175502232144 814.4840959821413) rotate(270 71.64899553571377 7.1648995535715585)"><path d="M0 0 L143.3 0 L143.3 14.33 L0 14.33" stroke="none" stroke-width="0" fill="#2fbad177"></path><path d="M0 0 C40.37 0, 80.75 0, 143.3 0 M0 0 C37.27 0, 74.55 0, 143.3 0 M143.3 0 C143.3 4.77, 143.3 9.54, 143.3 14.33 M143.3 0 C143.3 3.65, 143.3 7.3, 143.3 14.33 M143.3 14.33 C107.31 14.33, 71.33 14.33, 0 14.33 M143.3 14.33 C86.25 14.33, 29.2 14.33, 0 14.33 M0 14.33 C0 9.83, 0 5.33, 0 0 M0 14.33 C0 10.83, 0 7.34, 0 0" stroke="transparent" stroke-width="4" fill="none"></path></g><g stroke-linecap="round" transform="translate(1582.8351004464357 814.4840959821449) rotate(270 71.64899553571377 7.1648995535715585)"><path d="M0 0 L143.3 0 L143.3 14.33 L0 14.33" stroke="none" stroke-width="0" fill="#2fbad177"></path><path d="M0 0 C31.01 0, 62.01 0, 143.3 0 M0 0 C33.96 0, 67.92 0, 143.3 0 M143.3 0 C143.3 3.91, 143.3 7.81, 143.3 14.33 M143.3 0 C143.3 4.96, 143.3 9.93, 143.3 14.33 M143.3 14.33 C91.38 14.33, 39.46 14.33, 0 14.33 M143.3 14.33 C102.51 14.33, 61.73 14.33, 0 14.33 M0 14.33 C0 11.44, 0 8.55, 0 0 M0 14.33 C0 11.4, 0 8.48, 0 0" stroke="transparent" stroke-width="4" fill="none"></path></g><g stroke-linecap="round" transform="translate(1611.4946986607201 814.4840959821449) rotate(270 71.64899553571377 7.1648995535715585)"><path d="M0 0 L143.3 0 L143.3 14.33 L0 14.33" stroke="none" stroke-width="0" fill="#2fbad177"></path><path d="M0 0 C55.66 0, 111.31 0, 143.3 0 M0 0 C46.04 0, 92.08 0, 143.3 0 M143.3 0 C143.3 3.47, 143.3 6.93, 143.3 14.33 M143.3 0 C143.3 3.38, 143.3 6.76, 143.3 14.33 M143.3 14.33 C108.09 14.33, 72.89 14.33, 0 14.33 M143.3 14.33 C98.87 14.33, 54.44 14.33, 0 14.33 M0 14.33 C0 8.74, 0 3.16, 0 0 M0 14.33 C0 8.82, 0 3.31, 0 0" stroke="transparent" stroke-width="4" fill="none"></path></g><g stroke-linecap="round" transform="translate(1640.1542968750027 814.4840959821449) rotate(270 71.64899553571377 7.1648995535715585)"><path d="M0 0 L143.3 0 L143.3 14.33 L0 14.33" stroke="none" stroke-width="0" fill="#2fbad177"></path><path d="M0 0 C30.2 0, 60.4 0, 143.3 0 M0 0 C42.5 0, 85 0, 143.3 0 M143.3 0 C143.3 5.61, 143.3 11.21, 143.3 14.33 M143.3 0 C143.3 5.64, 143.3 11.28, 143.3 14.33 M143.3 14.33 C99.8 14.33, 56.3 14.33, 0 14.33 M143.3 14.33 C110.71 14.33, 78.11 14.33, 0 14.33 M0 14.33 C0 9.3, 0 4.27, 0 0 M0 14.33 C0 10.56, 0 6.78, 0 0" stroke="transparent" stroke-width="4" fill="none"></path></g><g stroke-linecap="round" transform="translate(1510.0000000000023 730) rotate(0 29.999999999999545 29.99999999999909)"><path d="M0 0 L60 0 L60 60 L0 60" stroke="none" stroke-width="0" fill="#fff"></path><path d="M0 0 C18.41 0, 36.81 0, 60 0 M0 0 C21.79 0, 43.57 0, 60 0 M60 0 C60 21.74, 60 43.48, 60 60 M60 0 C60 16.77, 60 33.54, 60 60 M60 60 C36.68 60, 13.36 60, 0 60 M60 60 C46.3 60, 32.59 60, 0 60 M0 60 C0 42.68, 0 25.36, 0 0 M0 60 C0 39.7, 0 19.4, 0 0" stroke="transparent" stroke-width="4" fill="none"></path></g><g stroke-linecap="round" transform="translate(1510.0000000000023 730) rotate(0 29.999999999999545 3)"><path d="M0 0 L60 0 L60 6 L0 6" stroke="none" stroke-width="0" fill="#efc71baa"></path><path d="M0 0 C14.92 0, 29.84 0, 60 0 M0 0 C13.4 0, 26.81 0, 60 0 M60 0 C60 1.79, 60 3.57, 60 6 M60 0 C60 2.3, 60 4.59, 60 6 M60 6 C45.66 6, 31.31 6, 0 6 M60 6 C40.55 6, 21.09 6, 0 6 M0 6 C0 3.82, 0 1.64, 0 0 M0 6 C0 4.64, 0 3.29, 0 0" stroke="transparent" stroke-width="4" fill="none"></path></g><g stroke-linecap="round" transform="translate(1510.0000000000023 742) rotate(0 29.999999999999545 3)"><path d="M0 0 L60 0 L60 6 L0 6" stroke="none" stroke-width="0" fill="#efc71b77"></path><path d="M0 0 C17.15 0, 34.29 0, 60 0 M0 0 C22.83 0, 45.65 0, 60 0 M60 0 C60 2.13, 60 4.26, 60 6 M60 0 C60 2.21, 60 4.41, 60 6 M60 6 C38.76 6, 17.52 6, 0 6 M60 6 C40.62 6, 21.23 6, 0 6 M0 6 C0 4.22, 0 2.44, 0 0 M0 6 C0 4.43, 0 2.85, 0 0" stroke="transparent" stroke-width="4" fill="none"></path></g><g stroke-linecap="round" transform="translate(1510.0000000000023 754) rotate(0 29.999999999999545 3)"><path d="M0 0 L60 0 L60 6 L0 6" stroke="none" stroke-width="0" fill="#efc71b77"></path><path d="M0 0 C18.75 0, 37.49 0, 60 0 M0 0 C17.48 0, 34.95 0, 60 0 M60 0 C60 2.17, 60 4.34, 60 6 M60 0 C60 2.4, 60 4.8, 60 6 M60 6 C40.42 6, 20.84 6, 0 6 M60 6 C43.58 6, 27.15 6, 0 6 M0 6 C0 3.69, 0 1.38, 0 0 M0 6 C0 4.78, 0 3.55, 0 0" stroke="transparent" stroke-width="4" fill="none"></path></g><g stroke-linecap="round" transform="translate(1510.0000000000023 766) rotate(0 29.999999999999545 3)"><path d="M0 0 L60 0 L60 6 L0 6" stroke="none" stroke-width="0" fill="#efc71b77"></path><path d="M0 0 C12.7 0, 25.4 0, 60 0 M0 0 C19.85 0, 39.69 0, 60 0 M60 0 C60 1.92, 60 3.84, 60 6 M60 0 C60 1.47, 60 2.95, 60 6 M60 6 C44.82 6, 29.64 6, 0 6 M60 6 C40.41 6, 20.82 6, 0 6 M0 6 C0 3.97, 0 1.94, 0 0 M0 6 C0 4.34, 0 2.68, 0 0" stroke="transparent" stroke-width="4" fill="none"></path></g><g stroke-linecap="round" transform="translate(1510.0000000000023 778) rotate(0 29.999999999999545 3)"><path d="M0 0 L60 0 L60 6 L0 6" stroke="none" stroke-width="0" fill="#efc71b77"></path><path d="M0 0 C20.83 0, 41.66 0, 60 0 M0 0 C12.69 0, 25.38 0, 60 0 M60 0 C60 1.89, 60 3.79, 60 6 M60 0 C60 2.21, 60 4.42, 60 6 M60 6 C42.89 6, 25.78 6, 0 6 M60 6 C47.26 6, 34.51 6, 0 6 M0 6 C0 4.07, 0 2.14, 0 0 M0 6 C0 3.93, 0 1.86, 0 0" stroke="transparent" stroke-width="4" fill="none"></path></g><g stroke-linecap="round" transform="translate(1483.0000000000005 757) rotate(270 29.999999999999545 3)"><path d="M0 0 L60 0 L60 6 L0 6" stroke="none" stroke-width="0" fill="#2fbad1aa"></path><path d="M0 0 C12.5 0, 24.99 0, 60 0 M0 0 C20.04 0, 40.08 0, 60 0 M60 0 C60 2.35, 60 4.71, 60 6 M60 0 C60 1.32, 60 2.65, 60 6 M60 6 C45.93 6, 31.87 6, 0 6 M60 6 C39.98 6, 19.97 6, 0 6 M0 6 C0 3.75, 0 1.5, 0 0 M0 6 C0 4.41, 0 2.83, 0 0" stroke="transparent" stroke-width="4" fill="none"></path></g><g stroke-linecap="round" transform="translate(1495.0000000000014 757) rotate(270 29.999999999999545 3)"><path d="M0 0 L60 0 L60 6 L0 6" stroke="none" stroke-width="0" fill="#2fbad177"></path><path d="M0 0 C15.61 0, 31.21 0, 60 0 M0 0 C19.98 0, 39.96 0, 60 0 M60 0 C60 1.53, 60 3.06, 60 6 M60 0 C60 1.51, 60 3.01, 60 6 M60 6 C36.11 6, 12.23 6, 0 6 M60 6 C41.16 6, 22.33 6, 0 6 M0 6 C0 4.54, 0 3.07, 0 0 M0 6 C0 4.58, 0 3.16, 0 0" stroke="transparent" stroke-width="4" fill="none"></path></g><g stroke-linecap="round" transform="translate(1507.0000000000032 757.0000000000018) rotate(270 29.999999999999545 3)"><path d="M0 0 L60 0 L60 6 L0 6" stroke="none" stroke-width="0" fill="#2fbad177"></path><path d="M0 0 C14.22 0, 28.44 0, 60 0 M0 0 C16.35 0, 32.7 0, 60 0 M60 0 C60 2.08, 60 4.16, 60 6 M60 0 C60 2.17, 60 4.35, 60 6 M60 6 C42.92 6, 25.85 6, 0 6 M60 6 C47.89 6, 35.78 6, 0 6 M0 6 C0 4.78, 0 3.55, 0 0 M0 6 C0 4.38, 0 2.77, 0 0" stroke="transparent" stroke-width="4" fill="none"></path></g><g stroke-linecap="round" transform="translate(1519.0000000000032 757.0000000000018) rotate(270 29.999999999999545 3)"><path d="M0 0 L60 0 L60 6 L0 6" stroke="none" stroke-width="0" fill="#2fbad177"></path><path d="M0 0 C19.28 0, 38.55 0, 60 0 M0 0 C14.52 0, 29.04 0, 60 0 M60 0 C60 1.42, 60 2.83, 60 6 M60 0 C60 1.47, 60 2.95, 60 6 M60 6 C41.4 6, 22.79 6, 0 6 M60 6 C36.61 6, 13.23 6, 0 6 M0 6 C0 3.69, 0 1.38, 0 0 M0 6 C0 4.19, 0 2.38, 0 0" stroke="transparent" stroke-width="4" fill="none"></path></g><g stroke-linecap="round" transform="translate(1531.0000000000023 757.0000000000018) rotate(270 29.999999999999545 3)"><path d="M0 0 L60 0 L60 6 L0 6" stroke="none" stroke-width="0" fill="#2fbad177"></path><path d="M0 0 C17.79 0, 35.59 0, 60 0 M0 0 C23.48 0, 46.95 0, 60 0 M60 0 C60 2.36, 60 4.72, 60 6 M60 0 C60 1.82, 60 3.64, 60 6 M60 6 C46.35 6, 32.71 6, 0 6 M60 6 C38.94 6, 17.88 6, 0 6 M0 6 C0 4.42, 0 2.84, 0 0 M0 6 C0 4.2, 0 2.4, 0 0" stroke="transparent" stroke-width="4" fill="none"></path></g><g stroke-linecap="round" transform="translate(1470.0000000000005 830) rotate(0 39.999999999999545 40)"><path d="M0 0 L80 0 L80 80 L0 80" stroke="none" stroke-width="0" fill="#fff"></path><path d="M0 0 C29.05 0, 58.09 0, 80 0 M0 0 C28.99 0, 57.97 0, 80 0 M80 0 C80 22.36, 80 44.72, 80 80 M80 0 C80 31.1, 80 62.19, 80 80 M80 80 C61.73 80, 43.46 80, 0 80 M80 80 C56.91 80, 33.81 80, 0 80 M0 80 C0 52.94, 0 25.87, 0 0 M0 80 C0 63.81, 0 47.61, 0 0" stroke="transparent" stroke-width="4" fill="none"></path></g><g stroke-linecap="round" transform="translate(1470.0000000000005 830) rotate(0 39.999999999999545 4)"><path d="M0 0 L80 0 L80 8 L0 8" stroke="none" stroke-width="0" fill="#efc71baa"></path><path d="M0 0 C17.87 0, 35.74 0, 80 0 M0 0 C23.82 0, 47.63 0, 80 0 M80 0 C80 3.06, 80 6.12, 80 8 M80 0 C80 1.91, 80 3.82, 80 8 M80 8 C54.06 8, 28.13 8, 0 8 M80 8 C50.91 8, 21.81 8, 0 8 M0 8 C0 6.19, 0 4.38, 0 0 M0 8 C0 5.4, 0 2.8, 0 0" stroke="transparent" stroke-width="4" fill="none"></path></g><g stroke-linecap="round" transform="translate(1470.0000000000005 846) rotate(0 39.999999999999545 4)"><path d="M0 0 L80 0 L80 8 L0 8" stroke="none" stroke-width="0" fill="#efc71b77"></path><path d="M0 0 C30.44 0, 60.87 0, 80 0 M0 0 C28.43 0, 56.86 0, 80 0 M80 0 C80 2.94, 80 5.88, 80 8 M80 0 C80 2.83, 80 5.66, 80 8 M80 8 C54.15 8, 28.31 8, 0 8 M80 8 C56.24 8, 32.48 8, 0 8 M0 8 C0 5.9, 0 3.8, 0 0 M0 8 C0 6.1, 0 4.21, 0 0" stroke="transparent" stroke-width="4" fill="none"></path></g><g stroke-linecap="round" transform="translate(1470.0000000000005 862.0000000000018) rotate(0 39.999999999999545 4)"><path d="M0 0 L80 0 L80 8 L0 8" stroke="none" stroke-width="0" fill="#efc71b77"></path><path d="M0 0 C23.3 0, 46.6 0, 80 0 M0 0 C28.94 0, 57.88 0, 80 0 M80 0 C80 3.2, 80 6.39, 80 8 M80 0 C80 2.61, 80 5.22, 80 8 M80 8 C58.1 8, 36.2 8, 0 8 M80 8 C49.23 8, 18.45 8, 0 8 M0 8 C0 6.37, 0 4.74, 0 0 M0 8 C0 5.78, 0 3.55, 0 0" stroke="transparent" stroke-width="4" fill="none"></path></g><g stroke-linecap="round" transform="translate(1470.0000000000005 877.9999999999982) rotate(0 39.999999999999545 4)"><path d="M0 0 L80 0 L80 8 L0 8" stroke="none" stroke-width="0" fill="#efc71b77"></path><path d="M0 0 C26.46 0, 52.92 0, 80 0 M0 0 C25.6 0, 51.19 0, 80 0 M80 0 C80 1.96, 80 3.93, 80 8 M80 0 C80 2.02, 80 4.05, 80 8 M80 8 C53.88 8, 27.76 8, 0 8 M80 8 C52.92 8, 25.84 8, 0 8 M0 8 C0 5.78, 0 3.57, 0 0 M0 8 C0 5.27, 0 2.53, 0 0" stroke="transparent" stroke-width="4" fill="none"></path></g><g stroke-linecap="round" transform="translate(1470.0000000000005 893.9999999999982) rotate(0 39.999999999999545 4)"><path d="M0 0 L80 0 L80 8 L0 8" stroke="none" stroke-width="0" fill="#efc71b77"></path><path d="M0 0 C16.92 0, 33.84 0, 80 0 M0 0 C25.26 0, 50.52 0, 80 0 M80 0 C80 2.95, 80 5.9, 80 8 M80 0 C80 2.28, 80 4.56, 80 8 M80 8 C63.01 8, 46.02 8, 0 8 M80 8 C54.28 8, 28.56 8, 0 8 M0 8 C0 5.24, 0 2.48, 0 0 M0 8 C0 5.97, 0 3.95, 0 0" stroke="transparent" stroke-width="4" fill="none"></path></g><g stroke-linecap="round" transform="translate(1434.0000000000005 866) rotate(270 39.999999999999545 4)"><path d="M0 0 L80 0 L80 8 L0 8" stroke="none" stroke-width="0" fill="#2fbad1aa"></path><path d="M0 0 C26.72 0, 53.44 0, 80 0 M0 0 C31.39 0, 62.78 0, 80 0 M80 0 C80 1.76, 80 3.53, 80 8 M80 0 C80 1.88, 80 3.75, 80 8 M80 8 C53.31 8, 26.62 8, 0 8 M80 8 C50.03 8, 20.06 8, 0 8 M0 8 C0 5.89, 0 3.77, 0 0 M0 8 C0 5.67, 0 3.35, 0 0" stroke="transparent" stroke-width="4" fill="none"></path></g><g stroke-linecap="round" transform="translate(1450.0000000000005 866) rotate(270 39.999999999999545 4)"><path d="M0 0 L80 0 L80 8 L0 8" stroke="none" stroke-width="0" fill="#2fbad177"></path><path d="M0 0 C26.64 0, 53.28 0, 80 0 M0 0 C20.37 0, 40.75 0, 80 0 M80 0 C80 2.01, 80 4.02, 80 8 M80 0 C80 3.18, 80 6.37, 80 8 M80 8 C54.88 8, 29.77 8, 0 8 M80 8 C60.48 8, 40.96 8, 0 8 M0 8 C0 6.11, 0 4.21, 0 0 M0 8 C0 5.53, 0 3.07, 0 0" stroke="transparent" stroke-width="4" fill="none"></path></g><g stroke-linecap="round" transform="translate(1466.0000000000032 866.0000000000036) rotate(270 39.999999999999545 4)"><path d="M0 0 L80 0 L80 8 L0 8" stroke="none" stroke-width="0" fill="#2fbad177"></path><path d="M0 0 C21.8 0, 43.6 0, 80 0 M0 0 C27.72 0, 55.44 0, 80 0 M80 0 C80 2.9, 80 5.8, 80 8 M80 0 C80 2.28, 80 4.55, 80 8 M80 8 C63.86 8, 47.71 8, 0 8 M80 8 C63.67 8, 47.34 8, 0 8 M0 8 C0 5.84, 0 3.69, 0 0 M0 8 C0 5.64, 0 3.28, 0 0" stroke="transparent" stroke-width="4" fill="none"></path></g><g stroke-linecap="round" transform="translate(1482.0000000000032 866.0000000000036) rotate(270 39.999999999999545 4)"><path d="M0 0 L80 0 L80 8 L0 8" stroke="none" stroke-width="0" fill="#2fbad177"></path><path d="M0 0 C19.36 0, 38.71 0, 80 0 M0 0 C18.88 0, 37.75 0, 80 0 M80 0 C80 1.97, 80 3.93, 80 8 M80 0 C80 2.48, 80 4.96, 80 8 M80 8 C48.82 8, 17.64 8, 0 8 M80 8 C49.23 8, 18.46 8, 0 8 M0 8 C0 5.58, 0 3.17, 0 0 M0 8 C0 5.89, 0 3.79, 0 0" stroke="transparent" stroke-width="4" fill="none"></path></g><g stroke-linecap="round" transform="translate(1498.0000000000032 866.0000000000018) rotate(270 39.999999999999545 4)"><path d="M0 0 L80 0 L80 8 L0 8" stroke="none" stroke-width="0" fill="#2fbad177"></path><path d="M0 0 C31.3 0, 62.61 0, 80 0 M0 0 C31.49 0, 62.97 0, 80 0 M80 0 C80 2.43, 80 4.86, 80 8 M80 0 C80 1.82, 80 3.64, 80 8 M80 8 C51.92 8, 23.84 8, 0 8 M80 8 C58.93 8, 37.86 8, 0 8 M0 8 C0 5.6, 0 3.2, 0 0 M0 8 C0 6.37, 0 4.73, 0 0" stroke="transparent" stroke-width="4" fill="none"></path></g><g stroke-linecap="round" transform="translate(1230.0791396103896 570) rotate(0 140 140)"><path d="M0 0 L280 0 L280 280 L0 280" stroke="none" stroke-width="0" fill="#612dd3"></path><path d="M0 0 C101.45 0, 202.9 0, 280 0 M0 0 C78.26 0, 156.52 0, 280 0 M280 0 C280 108.84, 280 217.68, 280 280 M280 0 C280 63.95, 280 127.9, 280 280 M280 280 C199.18 280, 118.35 280, 0 280 M280 280 C185.28 280, 90.55 280, 0 280 M0 280 C0 223.32, 0 166.65, 0 0 M0 280 C0 195.94, 0 111.89, 0 0" stroke="transparent" stroke-width="4" fill="none"></path></g><g stroke-linecap="round"><g transform="translate(1289.0730315724086 640.0871286724032) rotate(0 81.01112188402635 69.89207926862764)" fill-rule="evenodd"><path d="M0 0 L21.97 -0.09 L162.02 139.63 L117.59 139.87 L0.04 22.07 L0 0" stroke="none" stroke-width="0" fill="#fff" fill-rule="evenodd"></path><path d="M0 0 C6.54 -0.03, 13.08 -0.05, 21.97 -0.09 M0 0 C8.4 -0.03, 16.81 -0.07, 21.97 -0.09 M21.97 -0.09 C55.45 33.31, 88.93 66.71, 162.02 139.63 M21.97 -0.09 C67.37 45.21, 112.78 90.51, 162.02 139.63 M162.02 139.63 C145.86 139.72, 129.7 139.81, 117.59 139.87 M162.02 139.63 C151.97 139.68, 141.92 139.74, 117.59 139.87 M117.59 139.87 C79.38 101.58, 41.17 63.29, 0.04 22.07 M117.59 139.87 C81.89 104.09, 46.19 68.32, 0.04 22.07 M0.04 22.07 C0.03 14.58, 0.01 7.1, 0 0 M0.04 22.07 C0.03 17.44, 0.02 12.82, 0 0 M0 0 C0 0, 0 0, 0 0 M0 0 C0 0, 0 0, 0 0" stroke="transparent" stroke-width="1" fill="none"></path></g></g><g stroke-linecap="round"><g transform="translate(1289.0730315724077 676.9063053375612) rotate(0 51.44166357278982 51.51846451317397)" fill-rule="evenodd"><path d="M0 0 L103.1 102.84 L58.99 103.04 L-0.22 44.04 L0 0" stroke="none" stroke-width="0" fill="#fff" fill-rule="evenodd"></path><path d="M0 0 C36.64 36.55, 73.28 73.09, 103.1 102.84 M0 0 C37.92 37.82, 75.83 75.64, 103.1 102.84 M103.1 102.84 C87.49 102.91, 71.87 102.98, 58.99 103.04 M103.1 102.84 C88.85 102.9, 74.6 102.97, 58.99 103.04 M58.99 103.04 C41.41 85.52, 23.82 68, -0.22 44.04 M58.99 103.04 C43.45 87.55, 27.91 72.07, -0.22 44.04 M-0.22 44.04 C-0.17 33.61, -0.12 23.17, 0 0 M-0.22 44.04 C-0.14 27.99, -0.06 11.94, 0 0 M0 0 C0 0, 0 0, 0 0 M0 0 C0 0, 0 0, 0 0" stroke="transparent" stroke-width="1" fill="none"></path></g></g><g stroke-linecap="round"><g transform="translate(1289.0730315724081 780) rotate(0 21.902823890805166 -22.11030048988323)" fill-rule="evenodd"><path d="M0 0 L43.91 -0.24 L-0.11 -44.22 L0 0" stroke="none" stroke-width="0" fill="#fff" fill-rule="evenodd"></path><path d="M0 0 C15.88 -0.09, 31.77 -0.17, 43.91 -0.24 M0 0 C17.55 -0.1, 35.1 -0.19, 43.91 -0.24 M43.91 -0.24 C29.55 -14.59, 15.19 -28.94, -0.11 -44.22 M43.91 -0.24 C31.86 -12.28, 19.81 -24.32, -0.11 -44.22 M-0.11 -44.22 C-0.07 -27.21, -0.02 -10.2, 0 0 M-0.11 -44.22 C-0.08 -35.21, -0.06 -26.19, 0 0 M0 0 C0 0, 0 0, 0 0 M0 0 C0 0, 0 0, 0 0" stroke="transparent" stroke-width="1" fill="none"></path></g></g><g stroke-linecap="round"><g transform="translate(1450.8979939281671 780.1794149709312) rotate(0 -15.392952726635485 -70.08411429456555)" fill-rule="evenodd"><path d="M0 0 L0.25 -140.17 L-22.05 -140.14 L-30.75 -131.17 L-31.03 -30.49 L0 0" stroke="none" stroke-width="0" fill="#fff" fill-rule="evenodd"></path><path d="M0 0 C0.08 -44.85, 0.16 -89.69, 0.25 -140.17 M0 0 C0.06 -34.42, 0.12 -68.85, 0.25 -140.17 M0.25 -140.17 C-5.39 -140.16, -11.03 -140.15, -22.05 -140.14 M0.25 -140.17 C-7.03 -140.16, -14.31 -140.15, -22.05 -140.14 M-22.05 -140.14 C-24.99 -137.11, -27.94 -134.07, -30.75 -131.17 M-22.05 -140.14 C-24.46 -137.66, -26.87 -135.17, -30.75 -131.17 M-30.75 -131.17 C-30.85 -96.76, -30.94 -62.35, -31.03 -30.49 M-30.75 -131.17 C-30.85 -94.61, -30.96 -58.06, -31.03 -30.49 M-31.03 -30.49 C-22.8 -22.39, -14.56 -14.3, 0 0 M-31.03 -30.49 C-24.41 -23.98, -17.79 -17.48, 0 0 M0 0 C0 0, 0 0, 0 0 M0 0 C0 0, 0 0, 0 0" stroke="transparent" stroke-width="1" fill="none"></path></g></g><g stroke-linecap="round"><g transform="translate(1377.4385482635898 708.3534075709031) rotate(0 15.465568470497374 -8.943080520860349)" fill-rule="evenodd"><path d="M0 0 L-0.03 -16.3 L30.96 -47.64 L30.56 29.76 L0 0" stroke="none" stroke-width="0" fill="#fff" fill-rule="evenodd"></path><path d="M0 0 C-0.01 -5.15, -0.02 -10.3, -0.03 -16.3 M0 0 C-0.01 -6.01, -0.02 -12.02, -0.03 -16.3 M-0.03 -16.3 C8.81 -25.24, 17.65 -34.18, 30.96 -47.64 M-0.03 -16.3 C6.55 -22.96, 13.13 -29.62, 30.96 -47.64 M30.96 -47.64 C30.83 -22.76, 30.71 2.12, 30.56 29.76 M30.96 -47.64 C30.82 -20.92, 30.69 5.8, 30.56 29.76 M30.56 29.76 C22.83 22.22, 15.09 14.69, 0 0 M30.56 29.76 C24.22 23.58, 17.88 17.41, 0 0 M0 0 C0 0, 0 0, 0 0 M0 0 C0 0, 0 0, 0 0" stroke="transparent" stroke-width="1" fill="none"></path></g></g><g transform="translate(1230 870) rotate(0 110 25.907335907336346)"><text x="0" y="41.81467181467179" font-family="Helvetica, Segoe UI Emoji" font-size="45.495809398248404px" fill="#612dd3" text-anchor="start" style="white-space: pre;" direction="ltr">Materialize</text></g><g stroke-linecap="round"><g transform="translate(1030 730) rotate(0 96.44066769615597 0.2957553705009559)"><path d="M0 0 C32.15 0.1, 160.73 0.49, 192.88 0.59" stroke="#000" stroke-width="4.5" fill="none" stroke-dasharray="8 12"></path></g><g transform="translate(1030 730) rotate(0 96.44066769615597 0.2957553705009559)"><path d="M164.66 10.77 C171.85 8.17, 179.03 5.58, 192.88 0.59" stroke="#000" stroke-width="4.5" fill="none"></path></g><g transform="translate(1030 730) rotate(0 96.44066769615597 0.2957553705009559)"><path d="M164.72 -9.76 C171.89 -7.12, 179.06 -4.49, 192.88 0.59" stroke="#000" stroke-width="4.5" fill="none"></path></g></g><g stroke-linecap="round" transform="translate(2050 330) rotate(0 140 140)"><path d="M0 0 L280 0 L280 280 L0 280" stroke="none" stroke-width="0" fill="#fff"></path><path d="M0 0 C97.01 0, 194.03 0, 280 0 M280 0 C280 101.45, 280 202.9, 280 280 M280 280 C200.31 280, 120.61 280, 0 280 M0 280 C0 223.5, 0 167, 0 0" stroke="#575961" stroke-width="4.5" fill="none" stroke-dasharray="1.5 10"></path></g><g stroke-linecap="round" transform="translate(2140 420) rotate(0 20 20)"><path d="M0 0 L40 0 L40 40 L0 40" stroke="none" stroke-width="0" fill="#575961"></path><path d="M0 0 C9.44 0, 18.88 0, 40 0 M0 0 C9.83 0, 19.65 0, 40 0 M40 0 C40 12.4, 40 24.8, 40 40 M40 0 C40 15.59, 40 31.18, 40 40 M40 40 C24.62 40, 9.23 40, 0 40 M40 40 C27.92 40, 15.84 40, 0 40 M0 40 C0 29.47, 0 18.95, 0 0 M0 40 C0 30.1, 0 20.2, 0 0" stroke="transparent" stroke-width="4" fill="none"></path></g><g stroke-linecap="round" transform="translate(2200 420) rotate(0 20 20)"><path d="M0 0 L40 0 L40 40 L0 40" stroke="none" stroke-width="0" fill="#575961"></path><path d="M0 0 C15.74 0, 31.49 0, 40 0 M0 0 C12.14 0, 24.28 0, 40 0 M40 0 C40 9.1, 40 18.2, 40 40 M40 0 C40 14.04, 40 28.08, 40 40 M40 40 C29.46 40, 18.93 40, 0 40 M40 40 C28.01 40, 16.02 40, 0 40 M0 40 C0 31.83, 0 23.67, 0 0 M0 40 C0 28.87, 0 17.75, 0 0" stroke="transparent" stroke-width="4" fill="none"></path></g><g stroke-linecap="round" transform="translate(2140 480) rotate(0 20 20)"><path d="M0 0 L40 0 L40 40 L0 40" stroke="none" stroke-width="0" fill="#575961"></path><path d="M0 0 C11.18 0, 22.36 0, 40 0 M0 0 C15.55 0, 31.1 0, 40 0 M40 0 C40 9.14, 40 18.27, 40 40 M40 0 C40 11.55, 40 23.09, 40 40 M40 40 C26.47 40, 12.94 40, 0 40 M40 40 C31.9 40, 23.81 40, 0 40 M0 40 C0 27.99, 0 15.98, 0 0 M0 40 C0 27.69, 0 15.38, 0 0" stroke="transparent" stroke-width="4" fill="none"></path></g><g stroke-linecap="round" transform="translate(2200 480) rotate(0 20 20)"><path d="M0 0 L40 0 L40 40 L0 40" stroke="none" stroke-width="0" fill="#575961"></path><path d="M0 0 C15.3 0, 30.6 0, 40 0 M0 0 C9.56 0, 19.12 0, 40 0 M40 0 C40 12.97, 40 25.94, 40 40 M40 0 C40 14.55, 40 29.09, 40 40 M40 40 C30.95 40, 21.91 40, 0 40 M40 40 C27 40, 14 40, 0 40 M0 40 C0 27.85, 0 15.7, 0 0 M0 40 C0 26.43, 0 12.86, 0 0" stroke="transparent" stroke-width="4" fill="none"></path></g><g stroke-linecap="round" transform="translate(2250 450) rotate(0 8 8)"><path d="M0 0 L16 0 L16 16 L0 16" stroke="none" stroke-width="0" fill="#575961"></path><path d="M0 0 C5.88 0, 11.77 0, 16 0 M0 0 C5.66 0, 11.33 0, 16 0 M16 0 C16 5.17, 16 10.34, 16 16 M16 0 C16 4.75, 16 9.5, 16 16 M16 16 C11.8 16, 7.6 16, 0 16 M16 16 C12.21 16, 8.42 16, 0 16 M0 16 C0 10.17, 0 4.34, 0 0 M0 16 C0 11.77, 0 7.55, 0 0" stroke="transparent" stroke-width="4" fill="none"></path></g><g stroke-linecap="round" transform="translate(2274 450) rotate(0 8 8)"><path d="M0 0 L16 0 L16 16 L0 16" stroke="none" stroke-width="0" fill="#575961"></path><path d="M0 0 C6.39 0, 12.79 0, 16 0 M0 0 C5.22 0, 10.44 0, 16 0 M16 0 C16 4.38, 16 8.76, 16 16 M16 0 C16 6.15, 16 12.31, 16 16 M16 16 C12.74 16, 9.48 16, 0 16 M16 16 C11.55 16, 7.11 16, 0 16 M0 16 C0 10.92, 0 5.83, 0 0 M0 16 C0 11.05, 0 6.1, 0 0" stroke="transparent" stroke-width="4" fill="none"></path></g><g stroke-linecap="round" transform="translate(2250 474) rotate(0 8 8)"><path d="M0 0 L16 0 L16 16 L0 16" stroke="none" stroke-width="0" fill="#575961"></path><path d="M0 0 C3.93 0, 7.86 0, 16 0 M0 0 C4.05 0, 8.1 0, 16 0 M16 0 C16 5.22, 16 10.45, 16 16 M16 0 C16 5.42, 16 10.83, 16 16 M16 16 C11.57 16, 7.14 16, 0 16 M16 16 C10.53 16, 5.06 16, 0 16 M0 16 C0 10.19, 0 4.38, 0 0 M0 16 C0 11.75, 0 7.51, 0 0" stroke="transparent" stroke-width="4" fill="none"></path></g><g stroke-linecap="round" transform="translate(2274 474) rotate(0 8 8)"><path d="M0 0 L16 0 L16 16 L0 16" stroke="none" stroke-width="0" fill="#575961"></path><path d="M0 0 C5.9 0, 11.8 0, 16 0 M0 0 C4.56 0, 9.13 0, 16 0 M16 0 C16 3.4, 16 6.8, 16 16 M16 0 C16 5.14, 16 10.29, 16 16 M16 16 C10.48 16, 4.95 16, 0 16 M16 16 C11.95 16, 7.9 16, 0 16 M0 16 C0 12.68, 0 9.36, 0 0 M0 16 C0 11.66, 0 7.32, 0 0" stroke="transparent" stroke-width="4" fill="none"></path></g><g stroke-linecap="round" transform="translate(2090 450) rotate(0 8 8)"><path d="M0 0 L16 0 L16 16 L0 16" stroke="none" stroke-width="0" fill="#575961"></path><path d="M0 0 C3.53 0, 7.06 0, 16 0 M0 0 C3.75 0, 7.5 0, 16 0 M16 0 C16 5.34, 16 10.68, 16 16 M16 0 C16 5.99, 16 11.99, 16 16 M16 16 C11.77 16, 7.54 16, 0 16 M16 16 C11.35 16, 6.7 16, 0 16 M0 16 C0 10.14, 0 4.28, 0 0 M0 16 C0 11.23, 0 6.46, 0 0" stroke="transparent" stroke-width="4" fill="none"></path></g><g stroke-linecap="round" transform="translate(2114 450) rotate(0 8 8)"><path d="M0 0 L16 0 L16 16 L0 16" stroke="none" stroke-width="0" fill="#575961"></path><path d="M0 0 C4.02 0, 8.04 0, 16 0 M0 0 C6.37 0, 12.74 0, 16 0 M16 0 C16 5.02, 16 10.05, 16 16 M16 0 C16 3.9, 16 7.81, 16 16 M16 16 C12.21 16, 8.43 16, 0 16 M16 16 C11.07 16, 6.14 16, 0 16 M0 16 C0 10.05, 0 4.1, 0 0 M0 16 C0 11.69, 0 7.38, 0 0" stroke="transparent" stroke-width="4" fill="none"></path></g><g stroke-linecap="round" transform="translate(2090 474) rotate(0 8 8)"><path d="M0 0 L16 0 L16 16 L0 16" stroke="none" stroke-width="0" fill="#575961"></path><path d="M0 0 C5.8 0, 11.59 0, 16 0 M0 0 C4.55 0, 9.11 0, 16 0 M16 0 C16 3.23, 16 6.46, 16 16 M16 0 C16 3.27, 16 6.53, 16 16 M16 16 C11.69 16, 7.38 16, 0 16 M16 16 C11.28 16, 6.55 16, 0 16 M0 16 C0 12.7, 0 9.4, 0 0 M0 16 C0 9.83, 0 3.65, 0 0" stroke="transparent" stroke-width="4" fill="none"></path></g><g stroke-linecap="round" transform="translate(2114 474) rotate(0 8 8)"><path d="M0 0 L16 0 L16 16 L0 16" stroke="none" stroke-width="0" fill="#575961"></path><path d="M0 0 C3.93 0, 7.86 0, 16 0 M0 0 C4.96 0, 9.92 0, 16 0 M16 0 C16 6.24, 16 12.47, 16 16 M16 0 C16 6.15, 16 12.31, 16 16 M16 16 C11.17 16, 6.34 16, 0 16 M16 16 C11.79 16, 7.58 16, 0 16 M0 16 C0 12.04, 0 8.08, 0 0 M0 16 C0 11.01, 0 6.03, 0 0" stroke="transparent" stroke-width="4" fill="none"></path></g><g transform="translate(2070 630) rotate(0 119 26)"><text x="0" y="42" font-family="Helvetica, Segoe UI Emoji" font-size="45.495809398248404px" fill="#575961" text-anchor="start" style="white-space: pre;" direction="ltr">Web Server</text></g><g stroke-linecap="round" transform="translate(730 270) rotate(0 140 140)"><path d="M0 0 L280 0 L280 280 L0 280" stroke="none" stroke-width="0" fill="#fff"></path><path d="M0 0 C93.41 0, 186.81 0, 280 0 M0 0 C104.9 0, 209.8 0, 280 0 M280 0 C280 74.02, 280 148.04, 280 280 M280 0 C280 81.42, 280 162.84, 280 280 M280 280 C177.45 280, 74.89 280, 0 280 M280 280 C196.54 280, 113.08 280, 0 280 M0 280 C0 180.5, 0 81.01, 0 0 M0 280 C0 182.21, 0 84.43, 0 0" stroke="#575961" stroke-width="4" fill="none"></path></g><g transform="translate(730 190) rotate(0 107 31)"><text x="0" y="50" font-family="Helvetica, Segoe UI Emoji" font-size="53.5609756097561px" fill="#2b2c30" text-anchor="start" style="white-space: pre;" direction="ltr">Postgres</text></g><g stroke-linecap="round" transform="translate(820 405) rotate(0 50 12.5)"><path d="M100 12.5 C100 13.15, 99.79 13.81, 99.38 14.46 C98.98 15.1, 98.36 15.74, 97.55 16.36 C96.75 16.98, 95.73 17.59, 94.55 18.17 C93.37 18.76, 91.98 19.32, 90.45 19.85 C88.92 20.37, 87.2 20.88, 85.36 21.34 C83.51 21.8, 81.5 22.23, 79.39 22.61 C77.28 23, 75.02 23.34, 72.7 23.64 C70.38 23.93, 67.93 24.19, 65.45 24.39 C62.97 24.59, 60.4 24.74, 57.82 24.85 C55.25 24.95, 52.61 25, 50 25 C47.39 25, 44.75 24.95, 42.18 24.85 C39.6 24.74, 37.03 24.59, 34.55 24.39 C32.07 24.19, 29.62 23.93, 27.3 23.64 C24.98 23.34, 22.72 23, 20.61 22.61 C18.5 22.23, 16.49 21.8, 14.64 21.34 C12.8 20.88, 11.08 20.37, 9.55 19.85 C8.02 19.32, 6.63 18.76, 5.45 18.17 C4.27 17.59, 3.25 16.98, 2.45 16.36 C1.64 15.74, 1.02 15.1, 0.62 14.46 C0.21 13.81, 0 13.15, 0 12.5 C0 11.85, 0.21 11.19, 0.62 10.54 C1.02 9.9, 1.64 9.26, 2.45 8.64 C3.25 8.02, 4.27 7.41, 5.45 6.83 C6.63 6.24, 8.02 5.68, 9.55 5.15 C11.08 4.63, 12.8 4.12, 14.64 3.66 C16.49 3.2, 18.5 2.77, 20.61 2.39 C22.72 2, 24.98 1.66, 27.3 1.36 C29.62 1.07, 32.07 0.81, 34.55 0.61 C37.03 0.41, 39.6 0.26, 42.18 0.15 C44.75 0.05, 47.39 0, 50 0 C52.61 0, 55.25 0.05, 57.82 0.15 C60.4 0.26, 62.97 0.41, 65.45 0.61 C67.93 0.81, 70.38 1.07, 72.7 1.36 C75.02 1.66, 77.28 2, 79.39 2.39 C81.5 2.77, 83.51 3.2, 85.36 3.66 C87.2 4.12, 88.92 4.63, 90.45 5.15 C91.98 5.68, 93.37 6.24, 94.55 6.83 C95.73 7.41, 96.75 8.02, 97.55 8.64 C98.36 9.26, 98.98 9.9, 99.38 10.54 C99.79 11.19, 99.9 12.17, 100 12.5 C100.1 12.83, 100.1 12.17, 100 12.5" stroke="none" stroke-width="0" fill="#c1c3c6"></path><path d="M100 12.5 C100 13.15, 99.79 13.81, 99.38 14.46 C98.98 15.1, 98.36 15.74, 97.55 16.36 C96.75 16.98, 95.73 17.59, 94.55 18.17 C93.37 18.76, 91.98 19.32, 90.45 19.85 C88.92 20.37, 87.2 20.88, 85.36 21.34 C83.51 21.8, 81.5 22.23, 79.39 22.61 C77.28 23, 75.02 23.34, 72.7 23.64 C70.38 23.93, 67.93 24.19, 65.45 24.39 C62.97 24.59, 60.4 24.74, 57.82 24.85 C55.25 24.95, 52.61 25, 50 25 C47.39 25, 44.75 24.95, 42.18 24.85 C39.6 24.74, 37.03 24.59, 34.55 24.39 C32.07 24.19, 29.62 23.93, 27.3 23.64 C24.98 23.34, 22.72 23, 20.61 22.61 C18.5 22.23, 16.49 21.8, 14.64 21.34 C12.8 20.88, 11.08 20.37, 9.55 19.85 C8.02 19.32, 6.63 18.76, 5.45 18.17 C4.27 17.59, 3.25 16.98, 2.45 16.36 C1.64 15.74, 1.02 15.1, 0.62 14.46 C0.21 13.81, 0 13.15, 0 12.5 C0 11.85, 0.21 11.19, 0.62 10.54 C1.02 9.9, 1.64 9.26, 2.45 8.64 C3.25 8.02, 4.27 7.41, 5.45 6.83 C6.63 6.24, 8.02 5.68, 9.55 5.15 C11.08 4.63, 12.8 4.12, 14.64 3.66 C16.49 3.2, 18.5 2.77, 20.61 2.39 C22.72 2, 24.98 1.66, 27.3 1.36 C29.62 1.07, 32.07 0.81, 34.55 0.61 C37.03 0.41, 39.6 0.26, 42.18 0.15 C44.75 0.05, 47.39 0, 50 0 C52.61 0, 55.25 0.05, 57.82 0.15 C60.4 0.26, 62.97 0.41, 65.45 0.61 C67.93 0.81, 70.38 1.07, 72.7 1.36 C75.02 1.66, 77.28 2, 79.39 2.39 C81.5 2.77, 83.51 3.2, 85.36 3.66 C87.2 4.12, 88.92 4.63, 90.45 5.15 C91.98 5.68, 93.37 6.24, 94.55 6.83 C95.73 7.41, 96.75 8.02, 97.55 8.64 C98.36 9.26, 98.98 9.9, 99.38 10.54 C99.79 11.19, 99.9 12.17, 100 12.5 C100.1 12.83, 100.1 12.17, 100 12.5" stroke="#575961" stroke-width="4" fill="none"></path></g><g stroke-linecap="round" transform="translate(820 392.5) rotate(0 50 12.5)"><path d="M0 0 L100 0 L100 25 L0 25" stroke="none" stroke-width="0" fill="#c1c3c6"></path><path d="M0 0 C38.98 0, 77.95 0, 100 0 M0 0 C38.46 0, 76.92 0, 100 0 M100 0 C100 7.55, 100 15.1, 100 25 M100 0 C100 6.58, 100 13.16, 100 25 M100 25 C75.25 25, 50.51 25, 0 25 M100 25 C68.84 25, 37.67 25, 0 25 M0 25 C0 16.77, 0 8.55, 0 0 M0 25 C0 18.53, 0 12.07, 0 0" stroke="transparent" stroke-width="4" fill="none"></path></g><g stroke-linecap="round" transform="translate(820 380) rotate(0 50 12.5)"><path d="M100 12.5 C100 13.15, 99.79 13.81, 99.38 14.46 C98.98 15.1, 98.36 15.74, 97.55 16.36 C96.75 16.98, 95.73 17.59, 94.55 18.17 C93.37 18.76, 91.98 19.32, 90.45 19.85 C88.92 20.37, 87.2 20.88, 85.36 21.34 C83.51 21.8, 81.5 22.23, 79.39 22.61 C77.28 23, 75.02 23.34, 72.7 23.64 C70.38 23.93, 67.93 24.19, 65.45 24.39 C62.97 24.59, 60.4 24.74, 57.82 24.85 C55.25 24.95, 52.61 25, 50 25 C47.39 25, 44.75 24.95, 42.18 24.85 C39.6 24.74, 37.03 24.59, 34.55 24.39 C32.07 24.19, 29.62 23.93, 27.3 23.64 C24.98 23.34, 22.72 23, 20.61 22.61 C18.5 22.23, 16.49 21.8, 14.64 21.34 C12.8 20.88, 11.08 20.37, 9.55 19.85 C8.02 19.32, 6.63 18.76, 5.45 18.17 C4.27 17.59, 3.25 16.98, 2.45 16.36 C1.64 15.74, 1.02 15.1, 0.62 14.46 C0.21 13.81, 0 13.15, 0 12.5 C0 11.85, 0.21 11.19, 0.62 10.54 C1.02 9.9, 1.64 9.26, 2.45 8.64 C3.25 8.02, 4.27 7.41, 5.45 6.83 C6.63 6.24, 8.02 5.68, 9.55 5.15 C11.08 4.63, 12.8 4.12, 14.64 3.66 C16.49 3.2, 18.5 2.77, 20.61 2.39 C22.72 2, 24.98 1.66, 27.3 1.36 C29.62 1.07, 32.07 0.81, 34.55 0.61 C37.03 0.41, 39.6 0.26, 42.18 0.15 C44.75 0.05, 47.39 0, 50 0 C52.61 0, 55.25 0.05, 57.82 0.15 C60.4 0.26, 62.97 0.41, 65.45 0.61 C67.93 0.81, 70.38 1.07, 72.7 1.36 C75.02 1.66, 77.28 2, 79.39 2.39 C81.5 2.77, 83.51 3.2, 85.36 3.66 C87.2 4.12, 88.92 4.63, 90.45 5.15 C91.98 5.68, 93.37 6.24, 94.55 6.83 C95.73 7.41, 96.75 8.02, 97.55 8.64 C98.36 9.26, 98.98 9.9, 99.38 10.54 C99.79 11.19, 99.9 12.17, 100 12.5 C100.1 12.83, 100.1 12.17, 100 12.5" stroke="none" stroke-width="0" fill="#c1c3c6"></path><path d="M100 12.5 C100 13.15, 99.79 13.81, 99.38 14.46 C98.98 15.1, 98.36 15.74, 97.55 16.36 C96.75 16.98, 95.73 17.59, 94.55 18.17 C93.37 18.76, 91.98 19.32, 90.45 19.85 C88.92 20.37, 87.2 20.88, 85.36 21.34 C83.51 21.8, 81.5 22.23, 79.39 22.61 C77.28 23, 75.02 23.34, 72.7 23.64 C70.38 23.93, 67.93 24.19, 65.45 24.39 C62.97 24.59, 60.4 24.74, 57.82 24.85 C55.25 24.95, 52.61 25, 50 25 C47.39 25, 44.75 24.95, 42.18 24.85 C39.6 24.74, 37.03 24.59, 34.55 24.39 C32.07 24.19, 29.62 23.93, 27.3 23.64 C24.98 23.34, 22.72 23, 20.61 22.61 C18.5 22.23, 16.49 21.8, 14.64 21.34 C12.8 20.88, 11.08 20.37, 9.55 19.85 C8.02 19.32, 6.63 18.76, 5.45 18.17 C4.27 17.59, 3.25 16.98, 2.45 16.36 C1.64 15.74, 1.02 15.1, 0.62 14.46 C0.21 13.81, 0 13.15, 0 12.5 C0 11.85, 0.21 11.19, 0.62 10.54 C1.02 9.9, 1.64 9.26, 2.45 8.64 C3.25 8.02, 4.27 7.41, 5.45 6.83 C6.63 6.24, 8.02 5.68, 9.55 5.15 C11.08 4.63, 12.8 4.12, 14.64 3.66 C16.49 3.2, 18.5 2.77, 20.61 2.39 C22.72 2, 24.98 1.66, 27.3 1.36 C29.62 1.07, 32.07 0.81, 34.55 0.61 C37.03 0.41, 39.6 0.26, 42.18 0.15 C44.75 0.05, 47.39 0, 50 0 C52.61 0, 55.25 0.05, 57.82 0.15 C60.4 0.26, 62.97 0.41, 65.45 0.61 C67.93 0.81, 70.38 1.07, 72.7 1.36 C75.02 1.66, 77.28 2, 79.39 2.39 C81.5 2.77, 83.51 3.2, 85.36 3.66 C87.2 4.12, 88.92 4.63, 90.45 5.15 C91.98 5.68, 93.37 6.24, 94.55 6.83 C95.73 7.41, 96.75 8.02, 97.55 8.64 C98.36 9.26, 98.98 9.9, 99.38 10.54 C99.79 11.19, 99.9 12.17, 100 12.5 C100.1 12.83, 100.1 12.17, 100 12.5" stroke="#575961" stroke-width="4" fill="none"></path></g><g stroke-linecap="round" transform="translate(820 367.5) rotate(0 50 12.5)"><path d="M0 0 L100 0 L100 25 L0 25" stroke="none" stroke-width="0" fill="#c1c3c6"></path><path d="M0 0 C28.87 0, 57.73 0, 100 0 M0 0 C33.83 0, 67.66 0, 100 0 M100 0 C100 5.06, 100 10.12, 100 25 M100 0 C100 7.51, 100 15.01, 100 25 M100 25 C69.23 25, 38.46 25, 0 25 M100 25 C63.24 25, 26.47 25, 0 25 M0 25 C0 19.51, 0 14.01, 0 0 M0 25 C0 16.08, 0 7.17, 0 0" stroke="transparent" stroke-width="4" fill="none"></path></g><g stroke-linecap="round" transform="translate(820 355) rotate(0 50 12.5)"><path d="M100 12.5 C100 13.15, 99.79 13.81, 99.38 14.46 C98.98 15.1, 98.36 15.74, 97.55 16.36 C96.75 16.98, 95.73 17.59, 94.55 18.17 C93.37 18.76, 91.98 19.32, 90.45 19.85 C88.92 20.37, 87.2 20.88, 85.36 21.34 C83.51 21.8, 81.5 22.23, 79.39 22.61 C77.28 23, 75.02 23.34, 72.7 23.64 C70.38 23.93, 67.93 24.19, 65.45 24.39 C62.97 24.59, 60.4 24.74, 57.82 24.85 C55.25 24.95, 52.61 25, 50 25 C47.39 25, 44.75 24.95, 42.18 24.85 C39.6 24.74, 37.03 24.59, 34.55 24.39 C32.07 24.19, 29.62 23.93, 27.3 23.64 C24.98 23.34, 22.72 23, 20.61 22.61 C18.5 22.23, 16.49 21.8, 14.64 21.34 C12.8 20.88, 11.08 20.37, 9.55 19.85 C8.02 19.32, 6.63 18.76, 5.45 18.17 C4.27 17.59, 3.25 16.98, 2.45 16.36 C1.64 15.74, 1.02 15.1, 0.62 14.46 C0.21 13.81, 0 13.15, 0 12.5 C0 11.85, 0.21 11.19, 0.62 10.54 C1.02 9.9, 1.64 9.26, 2.45 8.64 C3.25 8.02, 4.27 7.41, 5.45 6.83 C6.63 6.24, 8.02 5.68, 9.55 5.15 C11.08 4.63, 12.8 4.12, 14.64 3.66 C16.49 3.2, 18.5 2.77, 20.61 2.39 C22.72 2, 24.98 1.66, 27.3 1.36 C29.62 1.07, 32.07 0.81, 34.55 0.61 C37.03 0.41, 39.6 0.26, 42.18 0.15 C44.75 0.05, 47.39 0, 50 0 C52.61 0, 55.25 0.05, 57.82 0.15 C60.4 0.26, 62.97 0.41, 65.45 0.61 C67.93 0.81, 70.38 1.07, 72.7 1.36 C75.02 1.66, 77.28 2, 79.39 2.39 C81.5 2.77, 83.51 3.2, 85.36 3.66 C87.2 4.12, 88.92 4.63, 90.45 5.15 C91.98 5.68, 93.37 6.24, 94.55 6.83 C95.73 7.41, 96.75 8.02, 97.55 8.64 C98.36 9.26, 98.98 9.9, 99.38 10.54 C99.79 11.19, 99.9 12.17, 100 12.5 C100.1 12.83, 100.1 12.17, 100 12.5" stroke="none" stroke-width="0" fill="#c1c3c6"></path><path d="M100 12.5 C100 13.15, 99.79 13.81, 99.38 14.46 C98.98 15.1, 98.36 15.74, 97.55 16.36 C96.75 16.98, 95.73 17.59, 94.55 18.17 C93.37 18.76, 91.98 19.32, 90.45 19.85 C88.92 20.37, 87.2 20.88, 85.36 21.34 C83.51 21.8, 81.5 22.23, 79.39 22.61 C77.28 23, 75.02 23.34, 72.7 23.64 C70.38 23.93, 67.93 24.19, 65.45 24.39 C62.97 24.59, 60.4 24.74, 57.82 24.85 C55.25 24.95, 52.61 25, 50 25 C47.39 25, 44.75 24.95, 42.18 24.85 C39.6 24.74, 37.03 24.59, 34.55 24.39 C32.07 24.19, 29.62 23.93, 27.3 23.64 C24.98 23.34, 22.72 23, 20.61 22.61 C18.5 22.23, 16.49 21.8, 14.64 21.34 C12.8 20.88, 11.08 20.37, 9.55 19.85 C8.02 19.32, 6.63 18.76, 5.45 18.17 C4.27 17.59, 3.25 16.98, 2.45 16.36 C1.64 15.74, 1.02 15.1, 0.62 14.46 C0.21 13.81, 0 13.15, 0 12.5 C0 11.85, 0.21 11.19, 0.62 10.54 C1.02 9.9, 1.64 9.26, 2.45 8.64 C3.25 8.02, 4.27 7.41, 5.45 6.83 C6.63 6.24, 8.02 5.68, 9.55 5.15 C11.08 4.63, 12.8 4.12, 14.64 3.66 C16.49 3.2, 18.5 2.77, 20.61 2.39 C22.72 2, 24.98 1.66, 27.3 1.36 C29.62 1.07, 32.07 0.81, 34.55 0.61 C37.03 0.41, 39.6 0.26, 42.18 0.15 C44.75 0.05, 47.39 0, 50 0 C52.61 0, 55.25 0.05, 57.82 0.15 C60.4 0.26, 62.97 0.41, 65.45 0.61 C67.93 0.81, 70.38 1.07, 72.7 1.36 C75.02 1.66, 77.28 2, 79.39 2.39 C81.5 2.77, 83.51 3.2, 85.36 3.66 C87.2 4.12, 88.92 4.63, 90.45 5.15 C91.98 5.68, 93.37 6.24, 94.55 6.83 C95.73 7.41, 96.75 8.02, 97.55 8.64 C98.36 9.26, 98.98 9.9, 99.38 10.54 C99.79 11.19, 99.9 12.17, 100 12.5 C100.1 12.83, 100.1 12.17, 100 12.5" stroke="#575961" stroke-width="4" fill="none"></path></g><g stroke-linecap="round" transform="translate(820 342.5) rotate(0 50 12.5)"><path d="M0 0 L100 0 L100 25 L0 25" stroke="none" stroke-width="0" fill="#c1c3c6"></path><path d="M0 0 C29.7 0, 59.39 0, 100 0 M0 0 C26.24 0, 52.49 0, 100 0 M100 0 C100 5.92, 100 11.85, 100 25 M100 0 C100 9.11, 100 18.22, 100 25 M100 25 C73.59 25, 47.18 25, 0 25 M100 25 C63.01 25, 26.02 25, 0 25 M0 25 C0 17.34, 0 9.69, 0 0 M0 25 C0 15.44, 0 5.88, 0 0" stroke="transparent" stroke-width="4" fill="none"></path></g><g stroke-linecap="round" transform="translate(820 330) rotate(0 50 12.5)"><path d="M100 12.5 C100 13.15, 99.79 13.81, 99.38 14.46 C98.98 15.1, 98.36 15.74, 97.55 16.36 C96.75 16.98, 95.73 17.59, 94.55 18.17 C93.37 18.76, 91.98 19.32, 90.45 19.85 C88.92 20.37, 87.2 20.88, 85.36 21.34 C83.51 21.8, 81.5 22.23, 79.39 22.61 C77.28 23, 75.02 23.34, 72.7 23.64 C70.38 23.93, 67.93 24.19, 65.45 24.39 C62.97 24.59, 60.4 24.74, 57.82 24.85 C55.25 24.95, 52.61 25, 50 25 C47.39 25, 44.75 24.95, 42.18 24.85 C39.6 24.74, 37.03 24.59, 34.55 24.39 C32.07 24.19, 29.62 23.93, 27.3 23.64 C24.98 23.34, 22.72 23, 20.61 22.61 C18.5 22.23, 16.49 21.8, 14.64 21.34 C12.8 20.88, 11.08 20.37, 9.55 19.85 C8.02 19.32, 6.63 18.76, 5.45 18.17 C4.27 17.59, 3.25 16.98, 2.45 16.36 C1.64 15.74, 1.02 15.1, 0.62 14.46 C0.21 13.81, 0 13.15, 0 12.5 C0 11.85, 0.21 11.19, 0.62 10.54 C1.02 9.9, 1.64 9.26, 2.45 8.64 C3.25 8.02, 4.27 7.41, 5.45 6.83 C6.63 6.24, 8.02 5.68, 9.55 5.15 C11.08 4.63, 12.8 4.12, 14.64 3.66 C16.49 3.2, 18.5 2.77, 20.61 2.39 C22.72 2, 24.98 1.66, 27.3 1.36 C29.62 1.07, 32.07 0.81, 34.55 0.61 C37.03 0.41, 39.6 0.26, 42.18 0.15 C44.75 0.05, 47.39 0, 50 0 C52.61 0, 55.25 0.05, 57.82 0.15 C60.4 0.26, 62.97 0.41, 65.45 0.61 C67.93 0.81, 70.38 1.07, 72.7 1.36 C75.02 1.66, 77.28 2, 79.39 2.39 C81.5 2.77, 83.51 3.2, 85.36 3.66 C87.2 4.12, 88.92 4.63, 90.45 5.15 C91.98 5.68, 93.37 6.24, 94.55 6.83 C95.73 7.41, 96.75 8.02, 97.55 8.64 C98.36 9.26, 98.98 9.9, 99.38 10.54 C99.79 11.19, 99.9 12.17, 100 12.5 C100.1 12.83, 100.1 12.17, 100 12.5" stroke="none" stroke-width="0" fill="#e0e2e2"></path><path d="M100 12.5 C100 13.15, 99.79 13.81, 99.38 14.46 C98.98 15.1, 98.36 15.74, 97.55 16.36 C96.75 16.98, 95.73 17.59, 94.55 18.17 C93.37 18.76, 91.98 19.32, 90.45 19.85 C88.92 20.37, 87.2 20.88, 85.36 21.34 C83.51 21.8, 81.5 22.23, 79.39 22.61 C77.28 23, 75.02 23.34, 72.7 23.64 C70.38 23.93, 67.93 24.19, 65.45 24.39 C62.97 24.59, 60.4 24.74, 57.82 24.85 C55.25 24.95, 52.61 25, 50 25 C47.39 25, 44.75 24.95, 42.18 24.85 C39.6 24.74, 37.03 24.59, 34.55 24.39 C32.07 24.19, 29.62 23.93, 27.3 23.64 C24.98 23.34, 22.72 23, 20.61 22.61 C18.5 22.23, 16.49 21.8, 14.64 21.34 C12.8 20.88, 11.08 20.37, 9.55 19.85 C8.02 19.32, 6.63 18.76, 5.45 18.17 C4.27 17.59, 3.25 16.98, 2.45 16.36 C1.64 15.74, 1.02 15.1, 0.62 14.46 C0.21 13.81, 0 13.15, 0 12.5 C0 11.85, 0.21 11.19, 0.62 10.54 C1.02 9.9, 1.64 9.26, 2.45 8.64 C3.25 8.02, 4.27 7.41, 5.45 6.83 C6.63 6.24, 8.02 5.68, 9.55 5.15 C11.08 4.63, 12.8 4.12, 14.64 3.66 C16.49 3.2, 18.5 2.77, 20.61 2.39 C22.72 2, 24.98 1.66, 27.3 1.36 C29.62 1.07, 32.07 0.81, 34.55 0.61 C37.03 0.41, 39.6 0.26, 42.18 0.15 C44.75 0.05, 47.39 0, 50 0 C52.61 0, 55.25 0.05, 57.82 0.15 C60.4 0.26, 62.97 0.41, 65.45 0.61 C67.93 0.81, 70.38 1.07, 72.7 1.36 C75.02 1.66, 77.28 2, 79.39 2.39 C81.5 2.77, 83.51 3.2, 85.36 3.66 C87.2 4.12, 88.92 4.63, 90.45 5.15 C91.98 5.68, 93.37 6.24, 94.55 6.83 C95.73 7.41, 96.75 8.02, 97.55 8.64 C98.36 9.26, 98.98 9.9, 99.38 10.54 C99.79 11.19, 99.9 12.17, 100 12.5 C100.1 12.83, 100.1 12.17, 100 12.5" stroke="#575961" stroke-width="4" fill="none"></path></g><g stroke-linecap="round" transform="translate(780 450) rotate(0 90 18.947368421052488)"><path d="M0 0 L180 0 L180 37.89 L0 37.89" stroke="none" stroke-width="0" fill="#e0e2e2"></path><path d="M0 0 C60.93 0, 121.87 0, 180 0 M0 0 C49.86 0, 99.72 0, 180 0 M180 0 C180 12.95, 180 25.9, 180 37.89 M180 0 C180 13.76, 180 27.52, 180 37.89 M180 37.89 C132.22 37.89, 84.44 37.89, 0 37.89 M180 37.89 C141.6 37.89, 103.2 37.89, 0 37.89 M0 37.89 C0 24.64, 0 11.38, 0 0 M0 37.89 C0 29.61, 0 21.32, 0 0" stroke="#57596100" stroke-width="4" fill="none"></path></g><g stroke-linecap="round" transform="translate(786.3157894736833 456.31578947368325) rotate(0 6.315789473684163 12.631578947368325)"><path d="M0 0 L12.63 0 L12.63 25.26 L0 25.26" stroke="none" stroke-width="0" fill="#c1c3c6"></path><path d="M0 0 C4.06 0, 8.12 0, 12.63 0 M0 0 C4.36 0, 8.72 0, 12.63 0 M12.63 0 C12.63 6.4, 12.63 12.79, 12.63 25.26 M12.63 0 C12.63 5.24, 12.63 10.49, 12.63 25.26 M12.63 25.26 C9.21 25.26, 5.78 25.26, 0 25.26 M12.63 25.26 C9.13 25.26, 5.63 25.26, 0 25.26 M0 25.26 C0 16.95, 0 8.63, 0 0 M0 25.26 C0 18.47, 0 11.68, 0 0" stroke="#575961" stroke-width="4" fill="none"></path></g><g stroke-linecap="round" transform="translate(798.9473684210534 456.31578947368325) rotate(0 6.315789473684163 12.631578947368325)"><path d="M0 0 L12.63 0 L12.63 25.26 L0 25.26" stroke="none" stroke-width="0" fill="#c1c3c6"></path><path d="M0 0 C4.73 0, 9.46 0, 12.63 0 M0 0 C3.34 0, 6.68 0, 12.63 0 M12.63 0 C12.63 7.35, 12.63 14.69, 12.63 25.26 M12.63 0 C12.63 9.25, 12.63 18.51, 12.63 25.26 M12.63 25.26 C8.87 25.26, 5.1 25.26, 0 25.26 M12.63 25.26 C8.14 25.26, 3.65 25.26, 0 25.26 M0 25.26 C0 16.44, 0 7.62, 0 0 M0 25.26 C0 17.43, 0 9.59, 0 0" stroke="#575961" stroke-width="4" fill="none"></path></g><g stroke-linecap="round" transform="translate(811.5789473684226 456.31578947368325) rotate(0 6.315789473684163 12.631578947368325)"><path d="M0 0 L12.63 0 L12.63 25.26 L0 25.26" stroke="none" stroke-width="0" fill="#c1c3c6"></path><path d="M0 0 C3.08 0, 6.16 0, 12.63 0 M0 0 C2.99 0, 5.98 0, 12.63 0 M12.63 0 C12.63 7.79, 12.63 15.58, 12.63 25.26 M12.63 0 C12.63 9.4, 12.63 18.8, 12.63 25.26 M12.63 25.26 C9.23 25.26, 5.82 25.26, 0 25.26 M12.63 25.26 C8.71 25.26, 4.79 25.26, 0 25.26 M0 25.26 C0 15.95, 0 6.64, 0 0 M0 25.26 C0 18.21, 0 11.16, 0 0" stroke="#575961" stroke-width="4" fill="none"></path></g><g stroke-linecap="round" transform="translate(824.2105263157882 456.31578947368325) rotate(0 6.315789473684163 12.631578947368325)"><path d="M0 0 L12.63 0 L12.63 25.26 L0 25.26" stroke="none" stroke-width="0" fill="#c1c3c6"></path><path d="M0 0 C2.58 0, 5.16 0, 12.63 0 M0 0 C3.4 0, 6.81 0, 12.63 0 M12.63 0 C12.63 7.46, 12.63 14.92, 12.63 25.26 M12.63 0 C12.63 5.21, 12.63 10.42, 12.63 25.26 M12.63 25.26 C7.76 25.26, 2.88 25.26, 0 25.26 M12.63 25.26 C9.9 25.26, 7.18 25.26, 0 25.26 M0 25.26 C0 16.65, 0 8.04, 0 0 M0 25.26 C0 18.59, 0 11.91, 0 0" stroke="#575961" stroke-width="4" fill="none"></path></g><g stroke-linecap="round" transform="translate(836.8421052631566 456.31578947368325) rotate(0 6.315789473684163 12.631578947368325)"><path d="M0 0 L12.63 0 L12.63 25.26 L0 25.26" stroke="none" stroke-width="0" fill="#c1c3c6"></path><path d="M0 0 C4.86 0, 9.72 0, 12.63 0 M0 0 C3.81 0, 7.63 0, 12.63 0 M12.63 0 C12.63 6.65, 12.63 13.3, 12.63 25.26 M12.63 0 C12.63 6.25, 12.63 12.5, 12.63 25.26 M12.63 25.26 C8.7 25.26, 4.76 25.26, 0 25.26 M12.63 25.26 C8.48 25.26, 4.32 25.26, 0 25.26 M0 25.26 C0 18.73, 0 12.19, 0 0 M0 25.26 C0 18.01, 0 10.76, 0 0" stroke="#575961" stroke-width="4" fill="none"></path></g><g stroke-linecap="round" transform="translate(849.4736842105267 456.31578947368325) rotate(0 6.315789473684163 12.631578947368325)"><path d="M0 0 L12.63 0 L12.63 25.26 L0 25.26" stroke="none" stroke-width="0" fill="#c1c3c6"></path><path d="M0 0 C3.33 0, 6.65 0, 12.63 0 M0 0 C3.79 0, 7.57 0, 12.63 0 M12.63 0 C12.63 5.16, 12.63 10.32, 12.63 25.26 M12.63 0 C12.63 7.03, 12.63 14.05, 12.63 25.26 M12.63 25.26 C7.71 25.26, 2.78 25.26, 0 25.26 M12.63 25.26 C7.86 25.26, 3.1 25.26, 0 25.26 M0 25.26 C0 15.19, 0 5.12, 0 0 M0 25.26 C0 18.93, 0 12.59, 0 0" stroke="#575961" stroke-width="4" fill="none"></path></g><g stroke-linecap="round" transform="translate(862.1052631578941 456.31578947368325) rotate(0 6.315789473684163 12.631578947368325)"><path d="M0 0 L12.63 0 L12.63 25.26 L0 25.26" stroke="none" stroke-width="0" fill="#c1c3c6"></path><path d="M0 0 C4.27 0, 8.55 0, 12.63 0 M0 0 C2.56 0, 5.11 0, 12.63 0 M12.63 0 C12.63 7.58, 12.63 15.17, 12.63 25.26 M12.63 0 C12.63 7.77, 12.63 15.55, 12.63 25.26 M12.63 25.26 C7.99 25.26, 3.34 25.26, 0 25.26 M12.63 25.26 C9.86 25.26, 7.08 25.26, 0 25.26 M0 25.26 C0 16.25, 0 7.24, 0 0 M0 25.26 C0 15.38, 0 5.49, 0 0" stroke="#575961" stroke-width="4" fill="none"></path></g><g stroke-linecap="round" transform="translate(874.7368421052633 456.31578947368325) rotate(0 6.315789473684163 12.631578947368325)"><path d="M0 0 L12.63 0 L12.63 25.26 L0 25.26" stroke="none" stroke-width="0" fill="#c1c3c6"></path><path d="M0 0 C2.86 0, 5.71 0, 12.63 0 M0 0 C4.11 0, 8.21 0, 12.63 0 M12.63 0 C12.63 7.67, 12.63 15.34, 12.63 25.26 M12.63 0 C12.63 8.57, 12.63 17.14, 12.63 25.26 M12.63 25.26 C9.99 25.26, 7.34 25.26, 0 25.26 M12.63 25.26 C7.77 25.26, 2.91 25.26, 0 25.26 M0 25.26 C0 19.36, 0 13.45, 0 0 M0 25.26 C0 20.15, 0 15.03, 0 0" stroke="#575961" stroke-width="4" fill="none"></path></g><g stroke-linecap="round" transform="translate(887.3684210526335 456.31578947368325) rotate(0 6.315789473684163 12.631578947368325)"><path d="M0 0 L12.63 0 L12.63 25.26 L0 25.26" stroke="none" stroke-width="0" fill="#c1c3c6"></path><path d="M0 0 C3.32 0, 6.63 0, 12.63 0 M0 0 C2.99 0, 5.99 0, 12.63 0 M12.63 0 C12.63 9.21, 12.63 18.41, 12.63 25.26 M12.63 0 C12.63 6.67, 12.63 13.34, 12.63 25.26 M12.63 25.26 C7.96 25.26, 3.29 25.26, 0 25.26 M12.63 25.26 C8.76 25.26, 4.89 25.26, 0 25.26 M0 25.26 C0 15.6, 0 5.94, 0 0 M0 25.26 C0 16.96, 0 8.66, 0 0" stroke="#575961" stroke-width="4" fill="none"></path></g><g stroke-linecap="round" transform="translate(900 456.31578947368325) rotate(0 6.315789473684163 12.631578947368325)"><path d="M0 0 L12.63 0 L12.63 25.26 L0 25.26" stroke="none" stroke-width="0" fill="#c1c3c6"></path><path d="M0 0 C2.58 0, 5.15 0, 12.63 0 M0 0 C3.51 0, 7.02 0, 12.63 0 M12.63 0 C12.63 8.03, 12.63 16.05, 12.63 25.26 M12.63 0 C12.63 7.82, 12.63 15.63, 12.63 25.26 M12.63 25.26 C7.83 25.26, 3.02 25.26, 0 25.26 M12.63 25.26 C8.27 25.26, 3.91 25.26, 0 25.26 M0 25.26 C0 15.28, 0 5.3, 0 0 M0 25.26 C0 19.85, 0 14.44, 0 0" stroke="#575961" stroke-width="4" fill="none"></path></g><g stroke-linecap="round" transform="translate(912.6315789473665 456.31578947368325) rotate(0 6.315789473684163 12.631578947368325)"><path d="M0 0 L12.63 0 L12.63 25.26 L0 25.26" stroke="none" stroke-width="0" fill="#c1c3c6"></path><path d="M0 0 C3.5 0, 7 0, 12.63 0 M0 0 C4.32 0, 8.63 0, 12.63 0 M12.63 0 C12.63 9.17, 12.63 18.35, 12.63 25.26 M12.63 0 C12.63 6.71, 12.63 13.41, 12.63 25.26 M12.63 25.26 C9.94 25.26, 7.24 25.26, 0 25.26 M12.63 25.26 C8.21 25.26, 3.79 25.26, 0 25.26 M0 25.26 C0 19.74, 0 14.21, 0 0 M0 25.26 C0 18.38, 0 11.49, 0 0" stroke="#575961" stroke-width="4" fill="none"></path></g><g stroke-linecap="round" transform="translate(925.2631578947367 456.31578947368325) rotate(0 6.315789473684163 12.631578947368325)"><path d="M0 0 L12.63 0 L12.63 25.26 L0 25.26" stroke="none" stroke-width="0" fill="#c1c3c6"></path><path d="M0 0 C4.36 0, 8.72 0, 12.63 0 M0 0 C3.2 0, 6.4 0, 12.63 0 M12.63 0 C12.63 5.24, 12.63 10.49, 12.63 25.26 M12.63 0 C12.63 6.85, 12.63 13.7, 12.63 25.26 M12.63 25.26 C9.13 25.26, 5.63 25.26, 0 25.26 M12.63 25.26 C8.47 25.26, 4.32 25.26, 0 25.26 M0 25.26 C0 18.47, 0 11.68, 0 0 M0 25.26 C0 16.6, 0 7.93, 0 0" stroke="#575961" stroke-width="4" fill="none"></path></g><g stroke-linecap="round" transform="translate(937.894736842105 456.31578947368325) rotate(0 6.315789473684163 12.631578947368325)"><path d="M0 0 L12.63 0 L12.63 25.26 L0 25.26" stroke="none" stroke-width="0" fill="#c1c3c6"></path><path d="M0 0 C3.34 0, 6.68 0, 12.63 0 M0 0 C3.67 0, 7.35 0, 12.63 0 M12.63 0 C12.63 9.25, 12.63 18.51, 12.63 25.26 M12.63 0 C12.63 7.53, 12.63 15.06, 12.63 25.26 M12.63 25.26 C8.14 25.26, 3.65 25.26, 0 25.26 M12.63 25.26 C8.22 25.26, 3.81 25.26, 0 25.26 M0 25.26 C0 17.43, 0 9.59, 0 0 M0 25.26 C0 19.34, 0 13.41, 0 0" stroke="#575961" stroke-width="4" fill="none"></path></g><g transform="translate(796 490) rotate(0 74 11.5)"><text x="0" y="18" font-family="Helvetica, Segoe UI Emoji" font-size="20px" fill="#343a40" text-anchor="start" style="white-space: pre;" direction="ltr">Write Ahead Log</text></g><g transform="translate(270 850) rotate(0 195 30.5)"><text x="0" y="49" font-family="Helvetica, Segoe UI Emoji" font-size="53.5609756097561px" fill="#2b2c30" text-anchor="start" style="white-space: pre;" direction="ltr">Message Broker</text></g><g stroke-linecap="round" transform="translate(271 610) rotate(0 380 110)"><path d="M0 0 L760 0 L760 220 L0 220" stroke="none" stroke-width="0" fill="#e0e2e2"></path><path d="M0 0 C229.47 0, 458.95 0, 760 0 M0 0 C199.98 0, 399.97 0, 760 0 M760 0 C760 54.44, 760 108.88, 760 220 M760 0 C760 68.56, 760 137.12, 760 220 M760 220 C509.92 220, 259.84 220, 0 220 M760 220 C563.43 220, 366.86 220, 0 220 M0 220 C0 156.87, 0 93.74, 0 0 M0 220 C0 133.06, 0 46.13, 0 0" stroke="#57596100" stroke-width="4" fill="none"></path></g><g stroke-linecap="round" transform="translate(291 630) rotate(0 20 40)"><path d="M0 0 L40 0 L40 80 L0 80" stroke="none" stroke-width="0" fill="#c1c3c6"></path><path d="M0 0 C11.99 0, 23.98 0, 40 0 M0 0 C8.17 0, 16.33 0, 40 0 M40 0 C40 22.25, 40 44.51, 40 80 M40 0 C40 31.2, 40 62.4, 40 80 M40 80 C24.91 80, 9.81 80, 0 80 M40 80 C24.06 80, 8.11 80, 0 80 M0 80 C0 59.93, 0 39.86, 0 0 M0 80 C0 60.38, 0 40.76, 0 0" stroke="#575961" stroke-width="4" fill="none"></path></g><g stroke-linecap="round" transform="translate(331 630) rotate(0 20 40)"><path d="M0 0 L40 0 L40 80 L0 80" stroke="none" stroke-width="0" fill="#c1c3c6"></path><path d="M0 0 C8.1 0, 16.19 0, 40 0 M0 0 C12.01 0, 24.02 0, 40 0 M40 0 C40 24.62, 40 49.23, 40 80 M40 0 C40 29.41, 40 58.82, 40 80 M40 80 C31.21 80, 22.42 80, 0 80 M40 80 C25.74 80, 11.47 80, 0 80 M0 80 C0 48.69, 0 17.38, 0 0 M0 80 C0 60.35, 0 40.69, 0 0" stroke="#575961" stroke-width="4" fill="none"></path></g><g stroke-linecap="round" transform="translate(371 630) rotate(0 20 40)"><path d="M0 0 L40 0 L40 80 L0 80" stroke="none" stroke-width="0" fill="#c1c3c6"></path><path d="M0 0 C13 0, 26 0, 40 0 M0 0 C12.15 0, 24.3 0, 40 0 M40 0 C40 27.14, 40 54.28, 40 80 M40 0 C40 16.76, 40 33.51, 40 80 M40 80 C24.61 80, 9.22 80, 0 80 M40 80 C30.65 80, 21.3 80, 0 80 M0 80 C0 63.8, 0 47.6, 0 0 M0 80 C0 55.66, 0 31.33, 0 0" stroke="#575961" stroke-width="4" fill="none"></path></g><g stroke-linecap="round" transform="translate(411 630) rotate(0 20 40)"><path d="M0 0 L40 0 L40 80 L0 80" stroke="none" stroke-width="0" fill="#c1c3c6"></path><path d="M0 0 C9.48 0, 18.95 0, 40 0 M0 0 C14.58 0, 29.15 0, 40 0 M40 0 C40 21.13, 40 42.26, 40 80 M40 0 C40 29.59, 40 59.18, 40 80 M40 80 C27.75 80, 15.5 80, 0 80 M40 80 C24.7 80, 9.4 80, 0 80 M0 80 C0 53.71, 0 27.42, 0 0 M0 80 C0 58.54, 0 37.09, 0 0" stroke="#575961" stroke-width="4" fill="none"></path></g><g stroke-linecap="round" transform="translate(451 630) rotate(0 20 40)"><path d="M0 0 L40 0 L40 80 L0 80" stroke="none" stroke-width="0" fill="#c1c3c6"></path><path d="M0 0 C11.12 0, 22.23 0, 40 0 M0 0 C12.71 0, 25.42 0, 40 0 M40 0 C40 24.75, 40 49.51, 40 80 M40 0 C40 30.44, 40 60.88, 40 80 M40 80 C26.19 80, 12.37 80, 0 80 M40 80 C24.2 80, 8.4 80, 0 80 M0 80 C0 62.87, 0 45.74, 0 0 M0 80 C0 63.88, 0 47.77, 0 0" stroke="#575961" stroke-width="4" fill="none"></path></g><g stroke-linecap="round" transform="translate(491 630) rotate(0 20 40)"><path d="M0 0 L40 0 L40 80 L0 80" stroke="none" stroke-width="0" fill="#c1c3c6"></path><path d="M0 0 C13.67 0, 27.34 0, 40 0 M0 0 C14.52 0, 29.05 0, 40 0 M40 0 C40 21.23, 40 42.47, 40 80 M40 0 C40 17.07, 40 34.13, 40 80 M40 80 C26.01 80, 12.02 80, 0 80 M40 80 C31.25 80, 22.5 80, 0 80 M0 80 C0 58.19, 0 36.39, 0 0 M0 80 C0 53.38, 0 26.77, 0 0" stroke="#575961" stroke-width="4" fill="none"></path></g><g stroke-linecap="round" transform="translate(531 630) rotate(0 20 40)"><path d="M0 0 L40 0 L40 80 L0 80" stroke="none" stroke-width="0" fill="#c1c3c6"></path><path d="M0 0 C10.13 0, 20.25 0, 40 0 M0 0 C8.3 0, 16.6 0, 40 0 M40 0 C40 21.7, 40 43.39, 40 80 M40 0 C40 22.16, 40 44.32, 40 80 M40 80 C26.83 80, 13.67 80, 0 80 M40 80 C29.25 80, 18.49 80, 0 80 M0 80 C0 52.56, 0 25.11, 0 0 M0 80 C0 53.13, 0 26.27, 0 0" stroke="#575961" stroke-width="4" fill="none"></path></g><g stroke-linecap="round" transform="translate(571 630) rotate(0 20 40)"><path d="M0 0 L40 0 L40 80 L0 80" stroke="none" stroke-width="0" fill="#c1c3c6"></path><path d="M0 0 C11.63 0, 23.26 0, 40 0 M0 0 C14.65 0, 29.3 0, 40 0 M40 0 C40 23.85, 40 47.69, 40 80 M40 0 C40 28.43, 40 56.86, 40 80 M40 80 C26.03 80, 12.06 80, 0 80 M40 80 C27.6 80, 15.19 80, 0 80 M0 80 C0 61.24, 0 42.48, 0 0 M0 80 C0 58.27, 0 36.55, 0 0" stroke="#575961" stroke-width="4" fill="none"></path></g><g stroke-linecap="round" transform="translate(611 630) rotate(0 20 40)"><path d="M0 0 L40 0 L40 80 L0 80" stroke="none" stroke-width="0" fill="#c1c3c6"></path><path d="M0 0 C12.33 0, 24.66 0, 40 0 M0 0 C14.88 0, 29.76 0, 40 0 M40 0 C40 21.56, 40 43.12, 40 80 M40 0 C40 24.82, 40 49.64, 40 80 M40 80 C25.25 80, 10.51 80, 0 80 M40 80 C28.84 80, 17.68 80, 0 80 M0 80 C0 63.26, 0 46.52, 0 0 M0 80 C0 52.5, 0 25.01, 0 0" stroke="#575961" stroke-width="4" fill="none"></path></g><g stroke-linecap="round" transform="translate(651 630) rotate(0 20 40)"><path d="M0 0 L40 0 L40 80 L0 80" stroke="none" stroke-width="0" fill="#c1c3c6"></path><path d="M0 0 C11.81 0, 23.62 0, 40 0 M0 0 C8.25 0, 16.5 0, 40 0 M40 0 C40 30.86, 40 61.73, 40 80 M40 0 C40 17.27, 40 34.54, 40 80 M40 80 C26.36 80, 12.73 80, 0 80 M40 80 C29.43 80, 18.86 80, 0 80 M0 80 C0 58.94, 0 37.87, 0 0 M0 80 C0 57.62, 0 35.24, 0 0" stroke="#575961" stroke-width="4" fill="none"></path></g><g stroke-linecap="round" transform="translate(691 630) rotate(0 20 40)"><path d="M0 0 L40 0 L40 80 L0 80" stroke="none" stroke-width="0" fill="#c1c3c6"></path><path d="M0 0 C10.53 0, 21.05 0, 40 0 M0 0 C9.9 0, 19.8 0, 40 0 M40 0 C40 24.93, 40 49.86, 40 80 M40 0 C40 26.32, 40 52.65, 40 80 M40 80 C29.65 80, 19.31 80, 0 80 M40 80 C28.52 80, 17.04 80, 0 80 M0 80 C0 48.39, 0 16.77, 0 0 M0 80 C0 56.09, 0 32.18, 0 0" stroke="#575961" stroke-width="4" fill="none"></path></g><g stroke-linecap="round" transform="translate(731 630) rotate(0 20 40)"><path d="M0 0 L40 0 L40 80 L0 80" stroke="none" stroke-width="0" fill="#c1c3c6"></path><path d="M0 0 C8.17 0, 16.33 0, 40 0 M0 0 C11.13 0, 22.25 0, 40 0 M40 0 C40 31.2, 40 62.4, 40 80 M40 0 C40 30.19, 40 60.38, 40 80 M40 80 C24.06 80, 8.11 80, 0 80 M40 80 C29.97 80, 19.93 80, 0 80 M0 80 C0 60.38, 0 40.76, 0 0 M0 80 C0 54.83, 0 29.66, 0 0" stroke="#575961" stroke-width="4" fill="none"></path></g><g stroke-linecap="round" transform="translate(771 630) rotate(0 20 40)"><path d="M0 0 L40 0 L40 80 L0 80" stroke="none" stroke-width="0" fill="#c1c3c6"></path><path d="M0 0 C12.01 0, 24.02 0, 40 0 M0 0 C12.31 0, 24.62 0, 40 0 M40 0 C40 29.41, 40 58.82, 40 80 M40 0 C40 17.58, 40 35.17, 40 80 M40 80 C25.74 80, 11.47 80, 0 80 M40 80 C24.35 80, 8.69 80, 0 80 M0 80 C0 60.35, 0 40.69, 0 0 M0 80 C0 54.98, 0 29.97, 0 0" stroke="#575961" stroke-width="4" fill="none"></path></g><g stroke-linecap="round" transform="translate(811 630) rotate(0 20 40)"><path d="M0 0 L40 0 L40 80 L0 80" stroke="none" stroke-width="0" fill="#c1c3c6"></path><path d="M0 0 C12.15 0, 24.3 0, 40 0 M0 0 C13.57 0, 27.14 0, 40 0 M40 0 C40 16.76, 40 33.51, 40 80 M40 0 C40 30.78, 40 61.55, 40 80 M40 80 C30.65 80, 21.3 80, 0 80 M40 80 C31.9 80, 23.8 80, 0 80 M0 80 C0 55.66, 0 31.33, 0 0 M0 80 C0 56.3, 0 32.61, 0 0" stroke="#575961" stroke-width="4" fill="none"></path></g><g stroke-linecap="round" transform="translate(851 630) rotate(0 20 40)"><path d="M0 0 L40 0 L40 80 L0 80" stroke="none" stroke-width="0" fill="#c1c3c6"></path><path d="M0 0 C14.58 0, 29.15 0, 40 0 M0 0 C10.56 0, 21.13 0, 40 0 M40 0 C40 29.59, 40 59.18, 40 80 M40 0 C40 24.5, 40 49, 40 80 M40 80 C24.7 80, 9.4 80, 0 80 M40 80 C26.85 80, 13.71 80, 0 80 M0 80 C0 58.54, 0 37.09, 0 0 M0 80 C0 53.28, 0 26.57, 0 0" stroke="#575961" stroke-width="4" fill="none"></path></g><g stroke-linecap="round" transform="translate(891 630) rotate(0 20 40)"><path d="M0 0 L40 0 L40 80 L0 80" stroke="none" stroke-width="0" fill="#c1c3c6"></path><path d="M0 0 C12.71 0, 25.42 0, 40 0 M0 0 C12.38 0, 24.75 0, 40 0 M40 0 C40 30.44, 40 60.88, 40 80 M40 0 C40 27.63, 40 55.25, 40 80 M40 80 C24.2 80, 8.4 80, 0 80 M40 80 C31.44 80, 22.87 80, 0 80 M0 80 C0 63.88, 0 47.77, 0 0 M0 80 C0 55.46, 0 30.91, 0 0" stroke="#575961" stroke-width="4" fill="none"></path></g><g stroke-linecap="round" transform="translate(931 630) rotate(0 20 40)"><path d="M0 0 L40 0 L40 80 L0 80" stroke="none" stroke-width="0" fill="#c1c3c6"></path><path d="M0 0 C14.52 0, 29.05 0, 40 0 M0 0 C10.62 0, 21.23 0, 40 0 M40 0 C40 17.07, 40 34.13, 40 80 M40 0 C40 27.98, 40 55.97, 40 80 M40 80 C31.25 80, 22.5 80, 0 80 M40 80 C29.1 80, 18.19 80, 0 80 M0 80 C0 53.38, 0 26.77, 0 0 M0 80 C0 52.08, 0 24.16, 0 0" stroke="#575961" stroke-width="4" fill="none"></path></g><g stroke-linecap="round" transform="translate(971 630) rotate(0 20 40)"><path d="M0 0 L40 0 L40 80 L0 80" stroke="none" stroke-width="0" fill="#c1c3c6"></path><path d="M0 0 C8.3 0, 16.6 0, 40 0 M0 0 C10.85 0, 21.7 0, 40 0 M40 0 C40 22.16, 40 44.32, 40 80 M40 0 C40 26.33, 40 52.67, 40 80 M40 80 C29.25 80, 18.49 80, 0 80 M40 80 C26.28 80, 12.56 80, 0 80 M0 80 C0 53.13, 0 26.27, 0 0 M0 80 C0 48.69, 0 17.38, 0 0" stroke="#575961" stroke-width="4" fill="none"></path></g><g stroke-linecap="round" transform="translate(290 730) rotate(0 20 40)"><path d="M0 0 L40 0 L40 80 L0 80" stroke="none" stroke-width="0" fill="#c1c3c6"></path><path d="M0 0 C14.65 0, 29.3 0, 40 0 M0 0 C11.92 0, 23.85 0, 40 0 M40 0 C40 28.43, 40 56.86, 40 80 M40 0 C40 27.94, 40 55.88, 40 80 M40 80 C27.6 80, 15.19 80, 0 80 M40 80 C30.62 80, 21.24 80, 0 80 M0 80 C0 58.27, 0 36.55, 0 0 M0 80 C0 49.47, 0 18.93, 0 0" stroke="#575961" stroke-width="4" fill="none"></path></g><g stroke-linecap="round" transform="translate(330 730) rotate(0 20 40)"><path d="M0 0 L40 0 L40 80 L0 80" stroke="none" stroke-width="0" fill="#c1c3c6"></path><path d="M0 0 C14.88 0, 29.76 0, 40 0 M0 0 C10.78 0, 21.56 0, 40 0 M40 0 C40 24.82, 40 49.64, 40 80 M40 0 C40 29.49, 40 58.98, 40 80 M40 80 C28.84 80, 17.68 80, 0 80 M40 80 C31.63 80, 23.26 80, 0 80 M0 80 C0 52.5, 0 25.01, 0 0 M0 80 C0 51.41, 0 22.82, 0 0" stroke="#575961" stroke-width="4" fill="none"></path></g><g stroke-linecap="round" transform="translate(370 730) rotate(0 20 40)"><path d="M0 0 L40 0 L40 80 L0 80" stroke="none" stroke-width="0" fill="#c1c3c6"></path><path d="M0 0 C8.25 0, 16.5 0, 40 0 M0 0 C15.43 0, 30.86 0, 40 0 M40 0 C40 17.27, 40 34.54, 40 80 M40 0 C40 27.27, 40 54.54, 40 80 M40 80 C29.43 80, 18.86 80, 0 80 M40 80 C29.47 80, 18.94 80, 0 80 M0 80 C0 57.62, 0 35.24, 0 0 M0 80 C0 56.54, 0 33.08, 0 0" stroke="#575961" stroke-width="4" fill="none"></path></g><g stroke-linecap="round" transform="translate(410 730) rotate(0 20 40)"><path d="M0 0 L40 0 L40 80 L0 80" stroke="none" stroke-width="0" fill="#c1c3c6"></path><path d="M0 0 C9.9 0, 19.8 0, 40 0 M0 0 C12.47 0, 24.93 0, 40 0 M40 0 C40 26.32, 40 52.65, 40 80 M40 0 C40 20.69, 40 41.38, 40 80 M40 80 C28.52 80, 17.04 80, 0 80 M40 80 C24.19 80, 8.39 80, 0 80 M0 80 C0 56.09, 0 32.18, 0 0 M0 80 C0 50.02, 0 20.05, 0 0" stroke="#575961" stroke-width="4" fill="none"></path></g><g stroke-linecap="round" transform="translate(450 730) rotate(0 20 40)"><path d="M0 0 L40 0 L40 80 L0 80" stroke="none" stroke-width="0" fill="#c1c3c6"></path><path d="M0 0 C11.13 0, 22.25 0, 40 0 M0 0 C15.6 0, 31.2 0, 40 0 M40 0 C40 30.19, 40 60.38, 40 80 M40 0 C40 31.89, 40 63.78, 40 80 M40 80 C29.97 80, 19.93 80, 0 80 M40 80 C30.19 80, 20.38 80, 0 80 M0 80 C0 54.83, 0 29.66, 0 0 M0 80 C0 49.39, 0 18.78, 0 0" stroke="#575961" stroke-width="4" fill="none"></path></g><g stroke-linecap="round" transform="translate(490 730) rotate(0 20 40)"><path d="M0 0 L40 0 L40 80 L0 80" stroke="none" stroke-width="0" fill="#c1c3c6"></path><path d="M0 0 C12.31 0, 24.62 0, 40 0 M0 0 C14.71 0, 29.41 0, 40 0 M40 0 C40 17.58, 40 35.17, 40 80 M40 0 C40 28.53, 40 57.06, 40 80 M40 80 C24.35 80, 8.69 80, 0 80 M40 80 C30.17 80, 20.35 80, 0 80 M0 80 C0 54.98, 0 29.97, 0 0 M0 80 C0 49.94, 0 19.87, 0 0" stroke="#575961" stroke-width="4" fill="none"></path></g><g stroke-linecap="round" transform="translate(530 730) rotate(0 20 40)"><path d="M0 0 L40 0 L40 80 L0 80" stroke="none" stroke-width="0" fill="#c1c3c6"></path><path d="M0 0 C13.57 0, 27.14 0, 40 0 M0 0 C8.38 0, 16.76 0, 40 0 M40 0 C40 30.78, 40 61.55, 40 80 M40 0 C40 18.7, 40 37.39, 40 80 M40 80 C31.9 80, 23.8 80, 0 80 M40 80 C27.83 80, 15.66 80, 0 80 M0 80 C0 56.3, 0 32.61, 0 0 M0 80 C0 49.11, 0 18.22, 0 0" stroke="#575961" stroke-width="4" fill="none"></path></g><g stroke-linecap="round" transform="translate(570 730) rotate(0 20 40)"><path d="M0 0 L40 0 L40 80 L0 80" stroke="none" stroke-width="0" fill="#c1c3c6"></path><path d="M0 0 C10.56 0, 21.13 0, 40 0 M0 0 C14.8 0, 29.59 0, 40 0 M40 0 C40 24.5, 40 49, 40 80 M40 0 C40 30.6, 40 61.2, 40 80 M40 80 C26.85 80, 13.71 80, 0 80 M40 80 C29.27 80, 18.54 80, 0 80 M0 80 C0 53.28, 0 26.57, 0 0 M0 80 C0 59.56, 0 39.11, 0 0" stroke="#575961" stroke-width="4" fill="none"></path></g><g stroke-linecap="round" transform="translate(610 730) rotate(0 20 40)"><path d="M0 0 L40 0 L40 80 L0 80" stroke="none" stroke-width="0" fill="#c1c3c6"></path><path d="M0 0 C12.38 0, 24.75 0, 40 0 M0 0 C15.22 0, 30.44 0, 40 0 M40 0 C40 27.63, 40 55.25, 40 80 M40 0 C40 31.6, 40 63.2, 40 80 M40 80 C31.44 80, 22.87 80, 0 80 M40 80 C31.94 80, 23.88 80, 0 80 M0 80 C0 55.46, 0 30.91, 0 0 M0 80 C0 57.8, 0 35.59, 0 0" stroke="#575961" stroke-width="4" fill="none"></path></g><g stroke-linecap="round" transform="translate(650 730) rotate(0 20 40)"><path d="M0 0 L40 0 L40 80 L0 80" stroke="none" stroke-width="0" fill="#c1c3c6"></path><path d="M0 0 C10.62 0, 21.23 0, 40 0 M0 0 C8.53 0, 17.07 0, 40 0 M40 0 C40 27.98, 40 55.97, 40 80 M40 0 C40 17.5, 40 34.99, 40 80 M40 80 C29.1 80, 18.19 80, 0 80 M40 80 C26.69 80, 13.38 80, 0 80 M0 80 C0 52.08, 0 24.16, 0 0 M0 80 C0 58.29, 0 36.58, 0 0" stroke="#575961" stroke-width="4" fill="none"></path></g><g stroke-linecap="round" transform="translate(690 730) rotate(0 20 40)"><path d="M0 0 L40 0 L40 80 L0 80" stroke="none" stroke-width="0" fill="#c1c3c6"></path><path d="M0 0 C10.85 0, 21.7 0, 40 0 M0 0 C11.08 0, 22.16 0, 40 0 M40 0 C40 26.33, 40 52.67, 40 80 M40 0 C40 21.51, 40 43.02, 40 80 M40 80 C26.28 80, 12.56 80, 0 80 M40 80 C26.57 80, 13.13 80, 0 80 M0 80 C0 48.69, 0 17.38, 0 0 M0 80 C0 58.54, 0 37.09, 0 0" stroke="#575961" stroke-width="4" fill="none"></path></g><g stroke-linecap="round" transform="translate(730 730) rotate(0 20 40)"><path d="M0 0 L40 0 L40 80 L0 80" stroke="none" stroke-width="0" fill="#c1c3c6"></path><path d="M0 0 C11.92 0, 23.85 0, 40 0 M0 0 C14.21 0, 28.43 0, 40 0 M40 0 C40 27.94, 40 55.88, 40 80 M40 0 C40 24.81, 40 49.62, 40 80 M40 80 C30.62 80, 21.24 80, 0 80 M40 80 C29.14 80, 18.27 80, 0 80 M0 80 C0 49.47, 0 18.93, 0 0 M0 80 C0 60.54, 0 41.08, 0 0" stroke="#575961" stroke-width="4" fill="none"></path></g><g stroke-linecap="round" transform="translate(770 730) rotate(0 20 40)"><path d="M0 0 L40 0 L40 80 L0 80" stroke="none" stroke-width="0" fill="#c1c3c6"></path><path d="M0 0 C10.78 0, 21.56 0, 40 0 M0 0 C12.41 0, 24.82 0, 40 0 M40 0 C40 29.49, 40 58.98, 40 80 M40 0 C40 22.32, 40 44.65, 40 80 M40 80 C31.63 80, 23.26 80, 0 80 M40 80 C26.25 80, 12.5 80, 0 80 M0 80 C0 51.41, 0 22.82, 0 0 M0 80 C0 63.44, 0 46.89, 0 0" stroke="#575961" stroke-width="4" fill="none"></path></g><g stroke-linecap="round" transform="translate(810 730) rotate(0 20 40)"><path d="M0 0 L40 0 L40 80 L0 80" stroke="none" stroke-width="0" fill="#c1c3c6"></path><path d="M0 0 C15.43 0, 30.86 0, 40 0 M0 0 C8.64 0, 17.27 0, 40 0 M40 0 C40 27.27, 40 54.54, 40 80 M40 0 C40 21.14, 40 42.27, 40 80 M40 80 C29.47 80, 18.94 80, 0 80 M40 80 C28.81 80, 17.62 80, 0 80 M0 80 C0 56.54, 0 33.08, 0 0 M0 80 C0 51.71, 0 23.43, 0 0" stroke="#575961" stroke-width="4" fill="none"></path></g><g stroke-linecap="round" transform="translate(850 730) rotate(0 20 40)"><path d="M0 0 L40 0 L40 80 L0 80" stroke="none" stroke-width="0" fill="#c1c3c6"></path><path d="M0 0 C12.47 0, 24.93 0, 40 0 M0 0 C13.16 0, 26.32 0, 40 0 M40 0 C40 20.69, 40 41.38, 40 80 M40 0 C40 22.96, 40 45.91, 40 80 M40 80 C24.19 80, 8.39 80, 0 80 M40 80 C28.04 80, 16.09 80, 0 80 M0 80 C0 50.02, 0 20.05, 0 0 M0 80 C0 49.59, 0 19.18, 0 0" stroke="#575961" stroke-width="4" fill="none"></path></g><g stroke-linecap="round" transform="translate(890 730) rotate(0 20 40)"><path d="M0 0 L40 0 L40 80 L0 80" stroke="none" stroke-width="0" fill="#c1c3c6"></path><path d="M0 0 C15.6 0, 31.2 0, 40 0 M0 0 C15.09 0, 30.19 0, 40 0 M40 0 C40 31.89, 40 63.78, 40 80 M40 0 C40 20.07, 40 40.14, 40 80 M40 80 C30.19 80, 20.38 80, 0 80 M40 80 C27.41 80, 14.83 80, 0 80 M0 80 C0 49.39, 0 18.78, 0 0 M0 80 C0 52.22, 0 24.44, 0 0" stroke="#575961" stroke-width="4" fill="none"></path></g><g stroke-linecap="round" transform="translate(930 730) rotate(0 20 40)"><path d="M0 0 L40 0 L40 80 L0 80" stroke="none" stroke-width="0" fill="#c1c3c6"></path><path d="M0 0 C14.71 0, 29.41 0, 40 0 M0 0 C8.79 0, 17.58 0, 40 0 M40 0 C40 28.53, 40 57.06, 40 80 M40 0 C40 31.31, 40 62.62, 40 80 M40 80 C30.17 80, 20.35 80, 0 80 M40 80 C27.49 80, 14.98 80, 0 80 M0 80 C0 49.94, 0 19.87, 0 0 M0 80 C0 55.08, 0 30.16, 0 0" stroke="#575961" stroke-width="4" fill="none"></path></g><g stroke-linecap="round" transform="translate(970 730) rotate(0 20 40)"><path d="M0 0 L40 0 L40 80 L0 80" stroke="none" stroke-width="0" fill="#c1c3c6"></path><path d="M0 0 C8.38 0, 16.76 0, 40 0 M0 0 C15.39 0, 30.78 0, 40 0 M40 0 C40 18.7, 40 37.39, 40 80 M40 0 C40 16.2, 40 32.4, 40 80 M40 80 C27.83 80, 15.66 80, 0 80 M40 80 C28.15 80, 16.3 80, 0 80 M0 80 C0 49.11, 0 18.22, 0 0 M0 80 C0 53.46, 0 26.93, 0 0" stroke="#575961" stroke-width="4" fill="none"></path></g><g stroke-linecap="round"><g transform="translate(970 470) rotate(0 130 90)"><path d="M0 0 C16.67 3.33, 70 -6.67, 100 20 C130 46.67, 153.33 133.33, 180 160 C206.67 186.67, 246.67 176.67, 260 180" stroke="#000000" stroke-width="4.5" fill="none" stroke-dasharray="8 12"></path></g><g transform="translate(970 470) rotate(0 130 90)"><path d="M231.41 189.09 C241.98 185.73, 252.56 182.36, 260 180" stroke="#000000" stroke-width="4.5" fill="none"></path></g><g transform="translate(970 470) rotate(0 130 90)"><path d="M232.26 168.58 C242.52 172.81, 252.78 177.03, 260 180" stroke="#000000" stroke-width="4.5" fill="none"></path></g></g><g transform="translate(1530 930) rotate(0 83 11.5)"><text x="0" y="18" font-family="Helvetica, Segoe UI Emoji" font-size="20px" fill="#343a40" text-anchor="start" style="white-space: pre;" direction="ltr">Materialized Views</text></g><g stroke-linecap="round"><g transform="translate(1750 590) rotate(0 140 -62.75336922200586)"><path d="M0 0 C36.91 -0.44, 179.35 13.14, 221.46 -2.67 C263.58 -18.48, 242.92 -73.57, 252.68 -94.88 C262.43 -116.18, 275.45 -124.55, 280 -130.48" stroke="#000" stroke-width="4.5" fill="none" stroke-dasharray="8 12"></path></g><g transform="translate(1750 590) rotate(0 140 -62.75336922200586)"><path d="M270.87 -109.98 C274.48 -118.08, 278.09 -126.18, 280 -130.48" stroke="#000" stroke-width="4.5" fill="none"></path></g><g transform="translate(1750 590) rotate(0 140 -62.75336922200586)"><path d="M259.83 -120.64 C267.8 -124.53, 275.77 -128.42, 280 -130.48" stroke="#000" stroke-width="4.5" fill="none"></path></g></g><g transform="translate(430 10) rotate(0 261 60)"><text x="0" y="28" font-family="Virgil, Segoe UI Emoji" font-size="32px" fill="#d9480f" text-anchor="start" style="white-space: pre;" direction="ltr">Account Information, correlating </text><text x="0" y="68" font-family="Virgil, Segoe UI Emoji" font-size="32px" fill="#d9480f" text-anchor="start" style="white-space: pre;" direction="ltr">accounts with owners stored in</text><text x="0" y="108" font-family="Virgil, Segoe UI Emoji" font-size="32px" fill="#d9480f" text-anchor="start" style="white-space: pre;" direction="ltr">a central Postgres database</text></g><g stroke-linecap="round"><g transform="translate(494.31906768962745 172.51644600465806) rotate(0 105.88604464843866 89.57234051115938)"><path d="M-0.57 -0.03 C35.58 29.4, 180.07 148.09, 216.09 177.84 M-4.32 -2.52 C31.56 27.32, 177.74 152.34, 214.08 181.66" stroke="#d9480f" stroke-width="4" fill="none"></path></g><g transform="translate(494.31906768962745 172.51644600465806) rotate(0 105.88604464843866 89.57234051115938)"><path d="M185.81 172.06 C194.12 174.21, 202.63 177.4, 216.04 185.32 M187.35 173.13 C198.26 177.13, 206.63 178.84, 213.5 181.03" stroke="#d9480f" stroke-width="4" fill="none"></path></g><g transform="translate(494.31906768962745 172.51644600465806) rotate(0 105.88604464843866 89.57234051115938)"><path d="M198.96 156.31 C203.83 162.68, 208.78 170.14, 216.04 185.32 M200.5 157.38 C206.57 167.37, 209.92 175.09, 213.5 181.03" stroke="#d9480f" stroke-width="4" fill="none"></path></g></g><g transform="translate(1370 130) rotate(0 186.5 45)"><text x="186.5" y="32" font-family="Virgil, Segoe UI Emoji" font-size="36px" fill="#862e9c" text-anchor="middle" style="white-space: pre;" direction="ltr">Continuously Updatng</text><text x="186.5" y="77" font-family="Virgil, Segoe UI Emoji" font-size="36px" fill="#862e9c" text-anchor="middle" style="white-space: pre;" direction="ltr">Feature Views</text></g><g stroke-linecap="round"><g transform="translate(1610 230) rotate(0 19.027218383923127 150.64489422485258)"><path d="M0.36 -0.11 C7.19 49.86, 34.11 249.75, 40.95 300.19 M-2.9 -2.63 C3.65 47.79, 32.03 253.75, 39.23 303.92" stroke="#862e9c" stroke-width="4" fill="none"></path></g><g transform="translate(1610 230) rotate(0 19.027218383923127 150.64489422485258)"><path d="M25.01 278.79 C29.71 287.27, 37.3 296.5, 41.52 303.65 M26.88 276.54 C30.42 286.57, 35.5 295.94, 37.37 304.99" stroke="#862e9c" stroke-width="4" fill="none"></path></g><g transform="translate(1610 230) rotate(0 19.027218383923127 150.64489422485258)"><path d="M45.33 275.94 C43.97 285.33, 45.48 295.4, 41.52 303.65 M47.2 273.69 C43.17 285.1, 40.64 295.53, 37.37 304.99" stroke="#862e9c" stroke-width="4" fill="none"></path></g></g><g stroke-linecap="round"><g transform="translate(1530 230) rotate(0 -1.7514202466195457 170.18531845294)"><path d="M-0.11 0.95 C-0.14 57.79, -0.25 284.48, 0.19 341.37 M-3.61 -1 C-4.04 54.97, -2.9 280.61, -1.94 337.11" stroke="#862e9c" stroke-width="4" fill="none"></path></g><g transform="translate(1530 230) rotate(0 -1.7514202466195457 170.18531845294)"><path d="M-11.13 309.29 C-7.14 321.52, -2.51 329, -2.21 340.09 M-13.37 308.57 C-8.6 318.95, -5.13 328.47, -0.87 338.71" stroke="#862e9c" stroke-width="4" fill="none"></path></g><g transform="translate(1530 230) rotate(0 -1.7514202466195457 170.18531845294)"><path d="M9.4 309.09 C6.93 321.36, 5.09 328.91, -2.21 340.09 M7.15 308.37 C4.07 319.18, -0.31 328.78, -0.87 338.71" stroke="#862e9c" stroke-width="4" fill="none"></path></g></g><g stroke-linecap="round"><g transform="translate(1570 250) rotate(0 19.697211822643794 240.1918908425423)"><path d="M0.95 0.19 C7.79 80.63, 34.48 402.32, 41.37 482.56 M-1.98 -2.17 C4.58 77.55, 32.6 399.08, 39.88 478.94" stroke="#862e9c" stroke-width="4" fill="none"></path></g><g transform="translate(1570 250) rotate(0 19.697211822643794 240.1918908425423)"><path d="M27.44 453.72 C34.78 463.44, 37.39 468.4, 42.87 482.24 M26.72 451.19 C31.78 460.95, 35.33 473.37, 41.48 479.88" stroke="#862e9c" stroke-width="4" fill="none"></path></g><g transform="translate(1570 250) rotate(0 19.697211822643794 240.1918908425423)"><path d="M47.88 451.91 C48.82 462.33, 45.05 467.86, 42.87 482.24 M47.16 449.38 C44.57 459.64, 40.44 472.74, 41.48 479.88" stroke="#862e9c" stroke-width="4" fill="none"></path></g></g><g stroke-linecap="round"><g transform="translate(653.2347006241976 971.8634574412372) rotate(0 58.99405200481419 -40.18166565890442)"><path d="M0.14 1.5 C20.63 -12.51, 100.77 -68.13, 121.22 -81.86 M-3.23 -0.15 C16.95 -14.06, 97.66 -66.3, 118.44 -79.34" stroke="#d9480f" stroke-width="4" fill="none"></path></g><g transform="translate(653.2347006241976 971.8634574412372) rotate(0 58.99405200481419 -40.18166565890442)"><path d="M102.36 -56.95 C101.28 -60.29, 106.99 -68.8, 120.62 -75.98 M102.16 -54.73 C106.18 -63.18, 108.92 -65.31, 118.24 -81.1" stroke="#d9480f" stroke-width="4" fill="none"></path></g><g transform="translate(653.2347006241976 971.8634574412372) rotate(0 58.99405200481419 -40.18166565890442)"><path d="M91.3 -74.24 C93.14 -73.46, 101.49 -77.85, 120.62 -75.98 M91.1 -72.02 C97.51 -76.26, 102.94 -74.19, 118.24 -81.1" stroke="#d9480f" stroke-width="4" fill="none"></path></g></g><g transform="translate(10 970) rotate(0 310 45)"><text x="310" y="32" font-family="Virgil, Segoe UI Emoji" font-size="36px" fill="#d9480f" text-anchor="middle" style="white-space: pre;" direction="ltr">JSON messages for each confirmed</text><text x="310" y="77" font-family="Virgil, Segoe UI Emoji" font-size="36px" fill="#d9480f" text-anchor="middle" style="white-space: pre;" direction="ltr"> fraudulent transaction</text></g></svg>